<svg width="150" height="150" viewBox="0 0 150 150" fill="none" xmlns="http://www.w3.org/2000/svg">
<rect x="89.0741" y="28.2997" width="52.2799" height="91" rx="13" transform="rotate(21.7864 89.0741 28.2997)" stroke="black" stroke-width="2"/>
<rect x="74.183" y="111.917" width="18.2447" height="2.08652" rx="1.04326" transform="rotate(21.7864 74.183 111.917)" fill="black"/>
<rect x="22" y="25" width="56" height="93" rx="14" fill="#FFD400"/>
<path d="M50 88.0853C50.6022 88.0853 51.0905 87.6458 51.1882 86.9948C52.5879 76.1549 54.1178 74.6087 64.7135 73.4368C65.3809 73.3717 65.8529 72.8835 65.8529 72.2487C65.8529 71.6139 65.3809 71.1257 64.7135 71.0443C54.1178 69.8887 52.5879 68.3424 51.1882 57.4863C51.0905 56.8353 50.6022 56.4121 50 56.4121C49.3978 56.4121 48.9095 56.8353 48.8118 57.4863C47.4121 68.3424 45.8822 69.8887 35.2865 71.0443C34.6191 71.1257 34.1471 71.6139 34.1471 72.2487C34.1471 72.8835 34.6191 73.3717 35.2865 73.4368C45.8822 74.8366 47.3145 76.1712 48.8118 86.9948C48.9095 87.6458 49.3978 88.0853 50 88.0853Z" fill="#231F20"/>
<rect x="41" y="110" width="18" height="2" rx="1" fill="#231F20"/>
</svg>
