<svg width="150" height="150" viewBox="0 0 150 150" fill="none" xmlns="http://www.w3.org/2000/svg">
<path d="M75.5 73.75C92.7589 73.75 106.75 59.7589 106.75 42.5C106.75 25.2411 92.7589 11.25 75.5 11.25C58.2411 11.25 44.25 25.2411 44.25 42.5C44.25 59.7589 58.2411 73.75 75.5 73.75Z" stroke="black" stroke-width="2" stroke-linecap="round" stroke-linejoin="round"/>
<path d="M88 55C88 55 83.3125 48.75 75.5 48.75C67.6875 48.75 63 55 63 55" stroke="black" stroke-width="2" stroke-linecap="round" stroke-linejoin="round"/>
<path d="M66.125 33.125H66.1568" stroke="black" stroke-width="2" stroke-linecap="round" stroke-linejoin="round"/>
<path d="M84.875 33.125H84.9061" stroke="black" stroke-width="2" stroke-linecap="round" stroke-linejoin="round"/>
<path d="M112.5 138.75C129.759 138.75 143.75 124.759 143.75 107.5C143.75 90.2411 129.759 76.25 112.5 76.25C95.2411 76.25 81.25 90.2411 81.25 107.5C81.25 124.759 95.2411 138.75 112.5 138.75Z" stroke="black" stroke-width="2" stroke-linecap="round" stroke-linejoin="round"/>
<path d="M100 116.875H125" stroke="black" stroke-width="2" stroke-linecap="round" stroke-linejoin="round"/>
<path d="M103.125 98.125H103.158" stroke="black" stroke-width="2" stroke-linecap="round" stroke-linejoin="round"/>
<path d="M121.875 98.125H121.907" stroke="black" stroke-width="2" stroke-linecap="round" stroke-linejoin="round"/>
<path d="M37.5 138.75C54.7589 138.75 68.75 124.759 68.75 107.5C68.75 90.2411 54.7589 76.25 37.5 76.25C20.2411 76.25 6.25 90.2411 6.25 107.5C6.25 124.759 20.2411 138.75 37.5 138.75Z" fill="#FFD400"/>
<path d="M25 113.75C25 113.75 29.6875 120 37.5 120C45.3125 120 50 113.75 50 113.75" stroke="black" stroke-width="2" stroke-linecap="round" stroke-linejoin="round"/>
<path d="M28.125 98.125H28.1576" stroke="black" stroke-width="2" stroke-linecap="round" stroke-linejoin="round"/>
<path d="M46.875 98.125H46.907" stroke="black" stroke-width="2" stroke-linecap="round" stroke-linejoin="round"/>
</svg>
