<svg width="648" height="429" viewBox="0 0 648 429" fill="none" xmlns="http://www.w3.org/2000/svg">
<path d="M443.281 141.294H302.63C282.454 141.294 265.932 124.773 265.932 104.596V36.698C265.932 16.5215 282.454 0 302.63 0H443.281C463.487 0 479.979 16.5215 479.979 36.698V104.596C480.008 124.773 463.487 141.294 443.281 141.294Z" fill="#FFD400"/>
<path d="M418.601 250.891C418.601 250.891 422.636 246.768 421.554 239.75C420.472 232.761 419.507 227.556 412.109 225.305C404.711 223.053 396.67 222.351 393.98 214.953C393.98 214.953 393.249 211.006 394.74 201.298C396.261 191.589 401.349 165.36 401.349 165.36C401.349 165.36 402.109 152.464 389.155 146.411C376.172 140.329 364.242 140.125 364.242 140.125C364.242 140.125 344.972 141.031 337.135 143.4C329.298 145.768 328.392 156.938 328.509 161.471C328.597 166.003 328.509 171.033 328.509 171.033L369.008 200.011C369.008 200.011 361.055 204.894 358.511 217.205C355.967 229.515 358.803 241.446 366.376 246.183C373.95 250.92 391.845 252.675 404.975 243.814L418.601 250.891Z" fill="#231F20"/>
<path d="M289.121 415.578L356.61 416.309C356.61 416.309 345.147 401.893 344.006 393.033C344.006 393.062 293.127 414.964 289.121 415.578Z" fill="#231F20"/>
<path d="M76.8577 265.629L88.6128 259.4H253.125L262.657 263.231L268.506 270.804L306.461 383.939L308.069 392.77L307.104 400.109L302.104 408.502L296.606 413.034L290.641 415.549H280.29L118.965 416.455L76.8577 265.629Z" fill="white"/>
<path d="M546.211 383.5V381.512C546.211 381.512 541.561 378.617 526.063 378.617C510.565 378.617 508.021 382.214 508.021 382.214V425.549C508.021 425.549 513.109 428.035 526.999 428.035C540.918 428.035 545.918 425.52 545.918 425.52L546.649 418.444C546.649 418.444 563.843 416.777 563.843 401.104C563.843 385.401 554.047 385.05 546.211 383.5ZM546.473 412.362V389.846C546.473 389.846 557.439 388.384 557.937 397.858C558.521 408.882 546.473 412.362 546.473 412.362Z" fill="#231F20"/>
<path d="M580.716 124.422H460.446C448.457 124.422 438.632 134.247 438.632 146.236V178.84V226.854L464.861 200.625H580.716C592.705 200.625 602.53 190.8 602.53 178.811V146.207C602.53 134.218 592.705 124.422 580.716 124.422Z" fill="#231F20"/>
<path d="M149.932 170.389L138.966 139.394H76.8577L92.385 183.256H153.558L149.932 170.389Z" fill="#FFD400"/>
<path d="M274.09 416.309H119.901C109.754 416.309 100.719 410.081 97.5313 400.841L60.9796 295.25C55.9208 280.659 67.2954 265.599 83.3489 265.599H237.539C247.685 265.599 256.721 271.828 259.908 281.068L296.46 386.659C301.518 401.279 290.144 416.309 274.09 416.309Z" fill="#231F20"/>
<path d="M344.825 235.481C344.825 235.481 315.058 239.545 302.104 256.535C289.15 273.524 277.98 295.747 277.98 295.747L306.11 382.857C306.11 382.857 309.122 376.073 311.402 375.722C313.683 375.371 320.818 375.752 323.304 378.442C323.304 378.442 330.848 374.903 339.913 380.547C339.913 380.547 349.329 379.348 357.721 383.939C366.113 388.53 373.511 391.717 373.511 391.717C373.511 391.717 374.33 408.502 362.984 415.871L471.265 416.309C471.265 416.309 479.599 398.764 478.4 383.91C477.23 369.055 472.434 341.364 466.206 328.234C459.978 315.076 453.077 297.238 444.773 284.285C436.439 271.331 428.689 260.891 420.823 253.055L405.999 243.785C405.999 243.785 389.418 251.739 376.874 249.604C364.329 247.47 363.599 244.282 363.599 244.282C363.599 244.282 354.534 257.529 349.007 256.71C343.451 255.862 344.825 235.481 344.825 235.481Z" fill="#FFD400"/>
<path d="M526.707 381.512C518.256 381.512 511.413 382.916 511.413 384.67L526.707 385.518L542 384.67C542 382.945 535.158 381.512 526.707 381.512Z" fill="white"/>
<path d="M333.363 154.131C333.363 154.131 329.562 167.173 329.24 170.272C328.889 173.372 328.655 191.063 328.07 196.56C327.485 202.087 330 221.065 343.451 219.486L344.825 235.481C344.825 235.481 343.393 256.33 349.007 256.681C354.592 257.032 363.599 244.253 363.599 244.253C363.599 244.253 356.843 238.2 357.194 226.007C357.545 213.813 362.926 204.923 369.944 199.952C369.944 199.952 365.411 189.279 368.949 182.671C368.949 182.671 354.475 180.273 347.72 173.898C340.965 167.524 336.872 163.898 333.363 154.131Z" fill="white"/>
<path d="M374.008 392.039C374.008 392.039 363.628 385.547 354.768 382.594C345.937 379.611 341.082 380.576 341.082 380.576C341.082 380.576 334.182 377.857 330.761 377.448C327.339 377.038 323.742 378.822 323.742 378.822C323.742 378.822 320.497 375.839 315.935 375.781C311.373 375.752 307.923 378.208 306.08 382.886C306.08 382.886 308.771 390.431 308.04 394.671C307.309 398.911 304.443 410.11 296.577 413.034C296.577 413.034 301.227 418.853 308.128 412.683C308.128 412.683 312.748 417.274 324.62 416.338C324.62 416.338 334.415 417.187 337.749 413.824C341.083 410.49 345.118 403.18 345.118 403.18C345.118 403.18 347.72 416.982 361.58 416.456C361.58 416.456 366.698 414.876 370.528 406.835C374.359 398.794 374.008 392.039 374.008 392.039Z" fill="white"/>
<path d="M175.196 339.843C179.904 347.972 179.349 357.066 173.998 360.166C168.647 363.265 160.488 359.172 155.81 351.043C151.102 342.914 151.657 333.819 157.008 330.72C162.33 327.62 170.488 331.714 175.196 339.843Z" fill="white"/>
<path d="M157.301 188.519H239.908L260.494 246.709H178.12L157.301 188.519Z" fill="#FFD400"/>
<path d="M474.16 153.459C474.16 158.956 469.715 163.401 464.218 163.401C458.72 163.401 454.276 158.956 454.276 153.459C454.276 147.961 458.72 143.517 464.218 143.517C469.686 143.517 474.16 147.961 474.16 153.459Z" fill="white"/>
<path d="M511.794 163.401C517.284 163.401 521.735 158.95 521.735 153.459C521.735 147.968 517.284 143.517 511.794 143.517C506.303 143.517 501.852 147.968 501.852 153.459C501.852 158.95 506.303 163.401 511.794 163.401Z" fill="white"/>
<path d="M561.299 163.401C566.79 163.401 571.242 158.95 571.242 153.459C571.242 147.968 566.79 143.517 561.299 143.517C555.808 143.517 551.357 147.968 551.357 153.459C551.357 158.95 555.808 163.401 561.299 163.401Z" fill="white"/>
<path d="M361.873 97.9878L390.792 48.4237L395.354 44.096L398.688 43.599L402.811 46.1137L433.923 98.865L435.064 103.602L432.257 108.339L429.04 109.714L365.061 109.217L361.873 107.345L360.265 103.602L361.873 97.9878Z" fill="white"/>
<path d="M335.643 217.614C335.643 217.614 327.134 228.931 334.357 237.498L344.825 235.481L343.451 219.486C343.451 219.486 337.69 219.456 335.643 217.614Z" fill="#231F20"/>
<path d="M391.67 189.396C391.67 198.695 386.377 206.239 379.827 206.239C373.277 206.239 367.985 198.695 367.985 189.396C367.985 180.098 373.277 172.553 379.827 172.553C386.377 172.553 391.67 180.098 391.67 189.396Z" fill="#F1F1F4"/>
<path d="M390.471 189.864C390.471 198.929 386.728 206.269 382.079 206.269C377.459 206.269 373.687 198.929 373.687 189.864C373.687 180.799 377.429 173.46 382.079 173.46C386.728 173.46 390.471 180.799 390.471 189.864Z" fill="white"/>
<path d="M376.406 172.378C376.406 172.378 375.091 156.178 366.552 149.19C356.932 141.324 345.966 141.148 345.966 141.148C345.966 141.148 348.13 138.75 354.066 138.633C360.002 138.516 366.961 140.768 372.985 145.417C379.009 150.067 383.073 161.003 382.108 171.705L376.406 172.378Z" fill="#FFD400"/>
<path d="M373.511 391.746C373.511 391.746 354.855 380.956 347.399 380.752C339.942 380.547 341.141 380.547 341.141 380.547C341.141 380.547 327.485 374.962 324.649 377.623C324.649 377.623 334.298 364.727 351.58 366.102C368.862 367.476 373.54 389.349 373.511 391.746Z" fill="#231F20"/>
<path d="M107.59 130.241C105.485 126.206 104.579 122.638 103.994 119.012C103.906 118.515 104.257 118.018 104.783 117.93C105.28 117.813 105.777 118.194 105.865 118.72C106.42 122.229 107.327 125.679 108.497 128.984C108.673 129.481 108.409 130.007 107.941 130.183C107.795 130.212 107.707 130.241 107.59 130.241ZM104.169 109.041C103.643 109.041 103.233 108.602 103.233 108.105C103.292 104.45 103.672 100.795 104.374 97.2275C104.491 96.7304 104.959 96.4087 105.485 96.4965C105.982 96.5842 106.333 97.0813 106.216 97.6076C105.544 101.087 105.163 104.626 105.105 108.164C105.105 108.632 104.666 109.041 104.169 109.041ZM108.292 87.9873C107.473 87.7241 107.239 87.1978 107.415 86.7007C108.321 84.3614 109.403 82.0512 110.573 79.8581C111.129 78.8639 111.684 77.8699 112.298 76.9049C112.561 76.4663 113.146 76.32 113.585 76.6124C114.024 76.8755 114.169 77.4604 113.877 77.899C113.292 78.8347 112.737 79.7996 112.211 80.7646C111.07 82.87 110.018 85.1216 109.14 87.4024C109.023 87.7533 108.672 87.9873 108.292 87.9873ZM179.992 85.9989C178.852 85.9989 177.653 85.7064 176.395 85.1508C175.928 84.9461 175.722 84.3906 175.927 83.9227C176.132 83.4548 176.688 83.221 177.156 83.4549C178.15 83.8935 179.115 84.1274 179.992 84.1274C182.799 84.1274 184.086 81.8173 184.583 80.4137C184.759 79.9166 185.314 79.6827 185.782 79.8581C186.279 80.0336 186.513 80.5892 186.337 81.0571C185.197 84.1859 182.887 85.9989 179.992 85.9989ZM168.763 78.2206C165.927 74.9456 164.377 71.5828 163.383 67.7814C163.266 67.2843 163.559 66.7581 164.056 66.6412C164.553 66.5242 165.079 66.8165 165.196 67.3136C166.131 70.8811 167.593 74.0391 169.523 76.7585C169.816 77.1972 169.728 77.7528 169.318 78.0744C169.143 78.1622 168.939 78.2206 168.763 78.2206ZM184.992 71.115C183.208 68.2493 181.864 66.261 180.08 64.5942C179.32 63.8924 178.559 63.2491 177.74 62.6058C177.331 62.2842 177.243 61.6993 177.565 61.2899C177.886 60.8806 178.471 60.7928 178.88 61.1145C179.728 61.787 180.547 62.4597 181.337 63.1907C183.325 65.0329 184.817 67.2551 185.84 69.7991C186.045 70.2669 185.811 70.8227 185.314 71.0274C185.226 71.0858 185.109 71.115 184.992 71.115ZM119.696 69.8284C118.673 69.2143 118.673 68.6295 119.024 68.2494C121.568 65.5592 124.375 63.1614 127.358 61.1145C127.767 60.8221 128.352 60.9099 128.673 61.3485C128.966 61.7871 128.849 62.3718 128.439 62.6642C125.573 64.6526 122.854 66.9628 120.398 69.536C120.193 69.7407 119.959 69.8284 119.696 69.8284ZM163.061 57.7809C162.535 57.7809 162.125 57.3423 162.125 56.8159C162.125 56.3773 162.155 55.9679 162.155 55.5293C160.926 55.2661 159.669 55.0615 158.412 54.9153C157.885 54.8569 157.534 54.389 157.593 53.8627C157.651 53.3363 158.119 52.9854 158.646 53.0438C159.874 53.1901 161.102 53.3948 162.301 53.6287C162.506 51.0555 162.944 48.4822 163.558 45.909C163.675 45.4118 164.173 45.0902 164.699 45.2072C165.196 45.3242 165.518 45.8505 165.401 46.3476C164.787 48.8916 164.347 51.4649 164.172 54.0381C165.926 54.4768 167.681 55.0324 169.348 55.7049C169.816 55.8804 170.079 56.4359 169.875 56.933C169.699 57.4009 169.143 57.664 168.646 57.4593C167.155 56.8745 165.635 56.3774 164.056 55.968C163.997 57.3716 163.588 57.7809 163.061 57.7809ZM137.358 57.7224C136.305 56.6405 136.54 56.1141 137.007 55.9094C138.879 55.1784 140.779 54.5351 142.68 54.0672C144.288 53.6578 145.955 53.3363 147.651 53.1024C148.177 53.0439 148.645 53.3947 148.704 53.9211C148.762 54.4182 148.411 54.9154 147.914 54.9739C146.306 55.1786 144.697 55.5002 143.177 55.8804C141.364 56.3482 139.522 56.933 137.738 57.664C137.592 57.6933 137.475 57.7224 137.358 57.7224ZM168.237 37.0196C167.33 36.6688 167.155 36.1131 167.418 35.6452C169.231 32.1655 171.365 29.2413 173.763 27.019C174.143 26.6681 174.845 26.5805 175.225 26.9606C175.576 27.3408 175.693 27.8085 175.313 28.1594C172.828 30.4987 170.81 33.2181 169.085 36.5224C168.91 36.8148 168.559 37.0196 168.237 37.0196ZM182.887 21.4632C181.834 20.6737 181.922 20.0888 182.331 19.7672C185.314 17.5156 188.355 15.498 191.396 13.7435C191.834 13.4803 192.419 13.6265 192.682 14.0944C192.945 14.533 192.8 15.1178 192.332 15.381C189.349 17.1062 186.366 19.0947 183.442 21.2878C183.296 21.4048 183.092 21.4632 182.887 21.4632ZM253.417 15.0886C249.908 13.1295 246.691 11.5797 243.387 10.3223C242.89 10.1468 242.656 9.59115 242.832 9.12329C243.007 8.62618 243.562 8.39225 244.03 8.56769C247.452 9.85431 250.756 11.4626 253.885 13.334C254.324 13.5972 254.469 14.1821 254.206 14.6207C254.06 14.9131 253.738 15.0886 253.417 15.0886ZM201.572 10.7901C200.519 9.70813 200.753 9.1818 201.221 8.97712C204.701 7.60277 208.209 6.55006 211.689 5.84827C212.216 5.76055 212.684 6.0822 212.801 6.5793C212.918 7.07641 212.567 7.57352 212.07 7.69049C208.678 8.36304 205.257 9.3866 201.894 10.7317C201.806 10.7902 201.689 10.7901 201.572 10.7901ZM233.357 7.48578C229.907 6.87171 226.574 6.5793 223.269 6.5793C222.041 6.55006 221.69 6.1699 221.69 5.64356C221.69 5.11721 222.099 4.70799 222.625 4.70799C226.69 4.70799 230.141 5.02949 233.533 5.64356C234.03 5.73128 234.381 6.22855 234.293 6.72565C234.176 7.16427 233.796 7.48578 233.357 7.48578Z" fill="#231F20"/>
<path d="M372.956 177.173C350.264 177.086 341.375 145.593 340.556 142.552C339.24 142.815 338.071 143.078 337.076 143.37C329.24 145.739 328.333 156.909 328.45 161.442C328.538 165.974 328.45 171.004 328.45 171.004L362.487 195.361C373.745 188.724 389.799 177.232 372.956 177.173Z" fill="white"/>
<path d="M366.611 228.404C364.125 213.491 372.751 202.994 372.751 202.994C372.751 202.994 378.687 187.73 378.249 186.355C377.898 185.332 360.85 186.852 351.961 187.817L368.949 199.952C368.949 199.952 360.996 204.836 358.452 217.146C355.908 229.457 358.744 241.387 366.318 246.125C371.143 249.136 380.119 250.92 389.418 249.546C378.423 248.552 368.628 240.364 366.611 228.404Z" fill="white"/>
<path d="M341.579 219.427C339.708 219.223 336.93 218.784 335.643 217.614C335.643 217.614 327.134 228.931 334.357 237.498L340.38 236.329C336.082 226.387 341.579 219.427 341.579 219.427Z" fill="white"/>
<path d="M523.139 360.429C515.068 360.429 508.841 357.68 504.688 352.241C498.635 344.317 498.869 333.147 500.448 327.971C502.816 320.193 502.319 317.824 500.653 309.9C499.337 303.555 501.179 297.326 505.127 292.969C508.957 288.729 514.367 286.741 520.332 287.384C526.414 288.027 531.122 290.659 533.9 294.957C536.942 299.665 537.439 306.098 535.275 312.561C531.853 322.825 535.421 326.831 535.45 326.889C540.568 332.445 543.842 343.001 540.48 350.984C538.754 355.107 534.514 360.107 524.251 360.429C523.9 360.429 523.519 360.429 523.139 360.429ZM518.11 289.138C512.408 289.138 508.694 291.829 506.501 294.226C502.992 298.116 501.296 303.818 502.261 308.438C504.133 317.357 504.747 320.281 502.232 328.497C500.653 333.673 500.829 344.112 506.18 351.101C510.127 356.277 516.151 358.792 524.192 358.528C531.532 358.294 536.561 355.429 538.754 350.253C541.795 343.06 538.695 333.176 534.075 328.147C533.9 327.942 529.748 323.263 533.52 311.976C535.508 306.04 535.07 300.192 532.351 295.981C529.894 292.15 525.683 289.84 520.156 289.256C519.425 289.168 518.753 289.138 518.11 289.138Z" fill="#231F20"/>
<path d="M495.33 277.647C491.149 277.647 487.874 272.851 487.874 266.74C487.874 260.599 491.149 255.804 495.33 255.804C499.512 255.804 502.816 260.599 502.816 266.74C502.787 272.851 499.512 277.647 495.33 277.647ZM495.33 257.675C492.289 257.675 489.745 261.827 489.745 266.74C489.745 271.652 492.318 275.775 495.33 275.775C498.342 275.775 500.945 271.623 500.945 266.74C500.916 261.827 498.342 257.675 495.33 257.675Z" fill="#231F20"/>
<path d="M546.21 413.356C545.772 413.356 545.392 413.063 545.304 412.625C545.187 412.128 545.509 411.631 546.006 411.514C546.415 411.426 556.357 409.057 556.971 399.203C557.147 396.571 556.474 394.554 554.983 393.15C551.942 390.255 546.415 390.811 546.386 390.811C545.889 390.869 545.421 390.489 545.362 389.992C545.304 389.465 545.684 389.027 546.181 388.968C546.444 388.939 552.614 388.325 556.299 391.805C558.199 393.618 559.048 396.133 558.843 399.349C558.141 410.636 546.532 413.356 546.415 413.385C546.357 413.326 546.298 413.356 546.21 413.356Z" fill="#231F20"/>
<path d="M546.649 419.38C546.181 419.38 545.773 419.029 545.714 418.532C545.656 418.005 546.035 417.567 546.561 417.508C547.293 417.42 564.019 415.578 562.849 399.408C562.498 394.378 560.802 390.577 557.82 388.091C553.083 384.173 546.649 384.875 546.591 384.875C546.094 384.933 545.626 384.553 545.538 384.056C545.48 383.53 545.86 383.091 546.357 383.003C546.65 382.974 553.638 382.185 558.989 386.629C562.381 389.436 564.312 393.706 564.721 399.262C566.008 417.245 546.942 419.35 546.737 419.35C546.708 419.38 546.679 419.38 546.649 419.38Z" fill="#231F20"/>
<path d="M526.999 429C523.665 429 507.085 428.795 507.085 425.052C507.085 424.526 507.495 424.117 508.021 424.117C508.489 424.117 508.87 424.468 508.957 424.906C509.835 425.842 516.648 427.129 527.028 427.129C537.701 427.129 544.632 425.784 545.363 424.848C545.363 424.321 545.743 424 546.269 424C546.796 424 547.176 424.526 547.176 425.052C547.147 428.795 530.362 429 526.999 429Z" fill="#231F20"/>
<path d="M508.021 425.959C507.495 425.959 507.085 425.549 507.085 425.023V382.214C507.085 381.687 507.495 381.278 508.021 381.278C508.548 381.278 508.957 381.687 508.957 382.214V425.023C508.957 425.549 508.548 425.959 508.021 425.959Z" fill="#231F20"/>
<path d="M546.211 425.959C545.684 425.959 545.275 425.55 545.275 425.023V381.892C545.275 381.366 545.684 380.956 546.211 380.956C546.737 380.956 547.147 381.366 547.147 381.892V425.023C547.147 425.55 546.737 425.959 546.211 425.959Z" fill="#231F20"/>
<path d="M527.116 386.746C526.297 386.746 507.085 386.688 507.085 382.214C507.085 377.711 526.297 377.681 527.116 377.681C527.935 377.681 547.147 377.74 547.147 382.214C547.147 386.717 527.935 386.746 527.116 386.746ZM508.987 382.214C509.747 383.208 516.209 384.875 527.116 384.875C538.315 384.875 544.807 383.12 545.304 382.126C544.807 381.307 538.315 379.524 527.116 379.524C516.209 379.553 509.776 381.22 508.987 382.214Z" fill="#231F20"/>
<path d="M417.841 251.827C416.759 250.92 416.935 250.335 417.373 250.072C421.058 247.938 420.941 242.411 420.531 239.311C419.83 233.726 417.666 229.72 414.069 227.439C413.28 226.942 412.402 226.504 411.408 226.065C409.741 225.392 407.986 224.925 406.144 224.457C402.489 223.492 398.747 222.527 395.823 219.807C393.22 217.41 392.05 213.55 392.635 209.222C396.29 182.086 399.974 166.88 400.355 165.243C399.916 158.137 396.641 152.464 390.559 148.371C382.079 142.669 370.148 141.207 361.61 141.031C361.083 141.031 360.675 140.593 360.704 140.066C360.704 139.569 361.142 139.16 361.639 139.16C370.441 139.364 382.751 140.856 391.611 146.821C398.22 151.266 401.788 157.465 402.226 165.272C402.168 165.711 398.308 180.975 394.477 209.456C393.98 213.17 394.916 216.415 397.08 218.404C399.653 220.772 403.045 221.679 406.613 222.614C408.455 223.082 410.355 223.58 412.11 224.311C413.25 224.778 414.215 225.276 415.092 225.831C419.157 228.463 421.613 232.907 422.403 239.048C423.163 245.218 421.73 249.692 418.309 251.68C418.163 251.768 418.016 251.827 417.841 251.827Z" fill="#231F20"/>
<path d="M328.83 169.922C328.362 169.922 327.953 169.571 327.894 169.103C325.029 143.955 338.626 141.733 339.211 141.645C340.293 141.236 342.106 140.768 344.27 140.388C344.825 140.3 345.264 140.622 345.352 141.148C345.44 141.645 345.118 142.142 344.592 142.23C342.545 142.61 340.819 143.02 339.679 143.458C338.977 143.575 327.134 145.651 329.766 168.898C329.825 169.425 329.444 169.863 328.947 169.922C328.889 169.922 328.859 169.922 328.83 169.922Z" fill="#231F20"/>
<path d="M450.123 398.062C419.537 371.658 352.194 367.33 351.522 367.301C350.995 367.271 350.615 366.833 350.644 366.306C350.674 365.78 351.171 365.458 351.639 365.429C352.311 365.488 420.297 369.845 450.737 396.425C451.118 396.776 451.176 397.361 450.825 397.741C450.65 397.975 450.387 398.062 450.123 398.062Z" fill="#231F20"/>
<path d="M471.85 416.514C470.973 416.163 470.768 415.607 471.031 415.14C490.564 377.36 460.855 311.684 442.404 282.238C437.667 274.664 432.432 266.681 426.38 259.576C420.882 253.113 413.513 248.961 405.15 244.604C404.682 244.37 404.507 243.785 404.77 243.347C405.004 242.879 405.56 242.733 406.028 242.966C414.244 247.265 422.11 251.68 427.812 258.377C433.982 265.599 439.246 273.641 444.012 281.273C464.042 313.233 492.582 377.594 472.697 416.046C472.522 416.338 472.201 416.514 471.85 416.514Z" fill="#231F20"/>
<path d="M277.98 296.683C277.132 296.42 276.927 295.864 277.102 295.396C277.453 294.577 277.775 293.759 278.155 292.969C292.542 259.751 311.724 241.124 336.813 236.007C338.772 235.598 344.65 234.574 344.65 234.574L344.971 236.416C344.971 236.416 339.123 237.44 337.164 237.82C312.397 242.849 294.179 260.599 279.851 293.671C279.5 294.49 279.15 295.279 278.828 296.098C278.711 296.478 278.36 296.683 277.98 296.683Z" fill="#231F20"/>
<path d="M343.392 220.421C341.287 220.421 339.474 220.158 337.866 219.661C333.918 218.404 331.228 215.509 329.678 210.742C327.31 203.549 327.427 195.888 327.544 188.49C327.632 183.577 327.749 179.659 327.866 175.741L328.07 169.658C328.304 168.693 328.831 168.372 329.328 168.547C329.825 168.693 330.088 169.22 329.942 169.717L329.737 175.77C329.62 179.659 329.473 183.577 329.415 187.466C329.298 195.712 329.182 203.227 331.433 210.099C332.778 214.251 335.059 216.766 338.392 217.819C340.439 218.462 342.837 218.667 345.937 218.374C349.036 218.111 353.539 217.556 356.697 216.912C357.194 216.854 357.692 217.146 357.809 217.643C357.897 218.14 357.575 218.638 357.078 218.755C353.861 219.398 349.27 219.953 346.112 220.217C345.177 220.392 344.27 220.421 343.392 220.421Z" fill="#231F20"/>
<path d="M368.949 183.636C343.802 179.016 336.111 163.605 333.831 156.237C332.924 159.892 331.463 165.418 329.971 169.775C329.796 170.272 329.298 170.506 328.772 170.36C328.275 170.185 328.012 169.658 328.187 169.161C330.614 162.173 332.895 152.055 332.925 151.938C333.042 151.5 333.48 151.236 333.889 151.207C334.357 151.236 334.708 151.587 334.766 152.055C334.854 153.02 337.486 175.945 369.125 181.794C369.622 181.881 369.973 182.378 369.885 182.876C369.768 183.343 369.388 183.636 368.949 183.636Z" fill="#231F20"/>
<path d="M352.604 179.951C351.844 179.834 351.347 180.156 351.142 182.846C350.908 185.858 351.668 186.384 352.37 186.355C353.043 186.326 353.715 185.39 353.686 183.256C353.627 181.121 353.569 180.127 352.604 179.951Z" fill="#231F20"/>
<path d="M331.813 178.723C331.082 178.577 330.555 178.869 330.263 181.56C329.912 184.571 330.673 185.127 331.345 185.098C332.018 185.098 332.72 184.191 332.778 182.027C332.807 179.922 332.778 178.928 331.813 178.723Z" fill="#231F20"/>
<path d="M329.064 173.314C328.012 172.612 328.07 171.998 328.45 171.676C329.62 170.653 331.638 169.425 335.644 170.477C336.141 170.623 336.462 171.12 336.316 171.618C336.199 172.115 335.702 172.407 335.176 172.29C332.106 171.471 330.673 172.232 329.708 173.109C329.503 173.255 329.269 173.314 329.064 173.314Z" fill="#231F20"/>
<path d="M349.387 257.646C342.837 255.365 343.656 238.726 343.89 235.422L343.042 219.749C343.013 219.223 343.422 218.784 343.919 218.755C344.446 218.755 344.884 219.135 344.913 219.632L345.761 235.393C345.293 242.645 345.703 254.429 348.89 255.657C351.668 256.681 359.008 249.4 363.394 243.873C363.715 243.464 364.3 243.405 364.709 243.727C365.119 244.048 365.177 244.633 364.856 245.043C363.101 247.324 354.592 257.646 349.387 257.646Z" fill="#231F20"/>
<path d="M334.006 237.557C326.111 227.147 335.41 217.351 335.498 217.263C335.848 216.883 336.433 216.883 336.813 217.234C337.193 217.585 337.193 218.199 336.843 218.55C336.492 218.901 328.567 227.322 334.767 236.066C335.059 236.475 334.971 237.06 334.532 237.381C334.386 237.498 334.211 237.557 334.006 237.557Z" fill="#231F20"/>
<path d="M380.383 250.891C375.675 250.891 370.997 250.043 366.991 247.704C360.44 243.873 356.815 236.68 356.171 226.299C355.353 213.052 364.476 202.789 369.418 199.221C369.827 198.929 370.412 199.017 370.734 199.426C371.026 199.835 370.938 200.42 370.529 200.742C365.879 204.105 357.282 213.754 358.072 226.182C358.686 235.89 362.02 242.586 367.985 246.066C381.67 254.107 405.005 243.025 405.238 242.908C405.706 242.703 406.262 242.879 406.496 243.347C406.73 243.814 406.525 244.37 406.057 244.604C405.268 244.955 392.752 250.891 380.383 250.891Z" fill="#231F20"/>
<path d="M412.051 378.559C411.437 378.5 411.057 378.032 411.116 377.535C414.332 345.048 396.202 291.039 395.998 290.484C395.822 289.987 396.086 289.46 396.583 289.285C397.051 289.109 397.606 289.372 397.782 289.87C397.957 290.425 416.233 344.814 412.987 377.681C412.929 378.208 412.519 378.559 412.051 378.559Z" fill="#231F20"/>
<path d="M344.153 205.333C343.275 205.333 342.34 205.187 341.316 204.923C340.819 204.777 340.527 204.28 340.673 203.783C340.819 203.286 341.316 202.993 341.813 203.14C343.918 203.725 345.644 203.549 346.93 202.672C349.094 201.18 349.387 198.11 349.387 198.081C349.445 197.554 349.797 197.204 350.411 197.233C350.937 197.291 351.288 197.73 351.259 198.256C351.229 198.432 350.849 202.233 347.983 204.222C346.901 204.953 345.615 205.333 344.153 205.333Z" fill="#231F20"/>
<path d="M429.859 154.424H397.664C397.138 154.424 396.729 154.014 396.729 153.488C396.729 152.962 397.138 152.552 397.664 152.552H429.859C430.386 152.552 430.795 152.962 430.795 153.488C430.795 153.985 430.386 154.424 429.859 154.424Z" fill="#231F20"/>
<path d="M328.45 154.424H314.063C292.483 154.424 274.909 136.85 274.909 115.27V50.3537C274.909 28.7736 292.483 11.1995 314.063 11.1995H451.702C473.283 11.1995 490.857 28.7736 490.857 50.3537V115.24C490.857 115.767 490.447 116.176 489.921 116.176C489.395 116.176 488.985 115.767 488.985 115.24V50.3537C488.985 29.7971 472.259 13.071 451.702 13.071H314.063C293.507 13.071 276.78 29.7971 276.78 50.3537V115.24C276.78 135.797 293.507 152.523 314.063 152.523H328.45C328.977 152.523 329.386 152.932 329.386 153.459C329.386 153.985 328.948 154.424 328.45 154.424Z" fill="#231F20"/>
<path d="M411.935 116.79H353.803C349.855 116.79 346.873 115.416 345.411 112.872C343.978 110.357 344.27 107.082 346.258 103.661L375.178 54.0965C377.167 50.6753 379.886 48.8038 382.839 48.8038C385.763 48.8038 388.512 50.6753 390.501 54.0965L419.449 103.661C421.467 107.082 421.76 110.357 420.298 112.872C418.894 115.416 415.912 116.79 411.935 116.79ZM382.868 50.7046C380.617 50.7046 378.483 52.2544 376.845 55.0908L347.925 104.655C346.288 107.462 345.966 110.065 347.077 111.995C348.188 113.924 350.586 114.977 353.832 114.977H411.964C415.239 114.977 417.636 113.924 418.718 111.995C419.83 110.094 419.508 107.462 417.87 104.655L388.922 55.0908C387.255 52.2544 385.12 50.7046 382.868 50.7046Z" fill="#231F20"/>
<path d="M173.208 354.259C168.003 354.259 161.95 350.224 158.149 343.644C153.207 335.077 153.88 325.369 159.699 322.035C162.564 320.398 166.19 320.485 169.933 322.357C173.53 324.17 176.805 327.415 179.173 331.509C184.115 340.077 183.442 349.756 177.653 353.119C176.308 353.879 174.787 354.259 173.208 354.259ZM164.172 322.766C162.885 322.766 161.687 323.058 160.634 323.673C155.751 326.509 155.37 335.047 159.786 342.709C164.201 350.37 171.804 354.318 176.687 351.51C181.571 348.674 181.951 340.135 177.536 332.474C175.343 328.702 172.36 325.719 169.085 324.053C167.36 323.175 165.693 322.766 164.172 322.766Z" fill="#231F20"/>
<path d="M620.747 417.245H553.872C553.345 417.245 552.936 416.836 552.936 416.309C552.936 415.783 553.345 415.374 553.872 415.374H620.747C621.273 415.374 621.683 415.783 621.683 416.309C621.683 416.836 621.273 417.245 620.747 417.245Z" fill="#231F20"/>
<path d="M508.021 417.245H1.20999C0.683645 417.245 0.27478 416.836 0.27478 416.309C0.27478 415.783 0.683645 415.374 1.20999 415.374H508.021C508.548 415.374 508.957 415.783 508.957 416.309C508.957 416.836 508.548 417.245 508.021 417.245Z" fill="#231F20"/>
<path d="M284.559 417.245C284.033 417.245 283.623 416.836 283.623 416.309C283.623 415.783 284.033 415.374 284.559 415.374C291.928 415.374 298.595 411.952 302.893 405.987C307.192 400.022 308.332 392.594 306.022 385.635L269.47 275.278C266.4 266.009 257.774 259.751 247.978 259.751H93.7884C92.0924 259.751 90.3964 259.926 88.7589 260.307C88.2326 260.394 87.7643 260.102 87.6474 259.605C87.5304 259.108 87.852 258.611 88.3491 258.494C90.1036 258.114 91.9461 257.909 93.7884 257.909H247.978C258.563 257.909 267.92 264.664 271.225 274.693L307.776 385.05C310.291 392.624 309.034 400.636 304.385 407.098C299.764 413.561 292.513 417.245 284.559 417.245Z" fill="#231F20"/>
<path d="M274.091 417.245H119.901C109.316 417.245 99.9879 410.783 96.6544 401.162L60.0735 295.572C57.6464 288.554 58.7284 281.039 63.0854 274.927C67.647 268.494 75.2203 264.664 83.3202 264.664H237.51C248.095 264.664 257.423 271.126 260.757 280.746L297.308 386.337C299.735 393.355 298.653 400.87 294.296 406.981C289.764 413.414 282.191 417.245 274.091 417.245ZM83.3495 266.564C75.8637 266.564 68.846 270.102 64.6353 276.038C60.6585 281.624 59.6344 288.524 61.8568 294.958L98.4085 400.548C101.479 409.408 110.105 415.374 119.901 415.374H274.061C281.576 415.374 288.566 411.835 292.776 405.899C296.753 400.314 297.776 393.384 295.554 386.98L258.973 281.39C255.903 272.53 247.276 266.564 237.481 266.564H83.3495Z" fill="#231F20"/>
<path d="M329.766 417.274C326.17 417.274 323.772 416.309 322.602 414.438C320.38 410.753 323.45 404.817 325.936 400.051C326.433 399.057 326.93 398.15 327.281 397.331C327.69 396.454 328.1 395.431 328.509 394.349C331.112 387.711 334.971 377.652 348.744 380.021C349.475 380.225 364.68 384.524 374.008 391.015C374.418 391.308 374.535 391.893 374.242 392.331C373.95 392.741 373.365 392.858 372.927 392.565C363.862 386.249 348.452 381.892 348.306 381.863C336.17 379.758 332.749 388.618 330.234 395.051C329.795 396.191 329.386 397.244 328.947 398.15C328.567 398.969 328.07 399.905 327.544 400.928C325.409 405.051 322.485 410.724 324.152 413.502C324.942 414.789 326.813 415.461 329.708 415.461C342.252 415.461 344.358 399.759 344.358 399.583C344.358 399.057 344.767 398.647 345.294 398.647C345.82 398.647 346.229 399.057 346.229 399.583C346.287 401.747 343.013 417.274 329.766 417.274Z" fill="#231F20"/>
<path d="M318.654 417.274C311.139 416.777 308.537 414.145 307.66 412.011C306.461 409.087 307.893 405.928 309.648 403.969C311.022 402.42 312.484 398.677 314.063 394.671C316.257 389.085 318.742 382.74 322.105 379.056C328.304 372.301 341.054 379.436 341.58 379.757C342.019 380.021 342.194 380.576 341.931 381.044C341.667 381.483 341.112 381.658 340.644 381.395C340.527 381.336 328.685 374.669 323.48 380.342C320.322 383.763 317.924 389.933 315.789 395.372C314.093 399.7 312.631 403.443 311.052 405.227C309.736 406.689 308.508 409.174 309.385 411.309C310.35 413.677 313.567 415.081 318.713 415.432C319.239 415.461 319.62 415.9 319.59 416.426C319.532 416.865 319.122 417.274 318.654 417.274Z" fill="#231F20"/>
<path d="M362.868 417.274C345.089 416.397 343.861 402.712 343.832 402.566C343.802 402.039 344.182 401.601 344.708 401.572C345.205 401.542 345.673 401.922 345.703 402.449C345.732 402.946 346.843 414.642 361.99 415.403C362.955 415.461 363.832 415.432 364.651 415.315C365.207 415.257 365.646 415.607 365.704 416.134C365.763 416.66 365.412 417.128 364.885 417.187C364.271 417.245 363.599 417.274 362.868 417.274Z" fill="#231F20"/>
<path d="M362.34 417.245C361.259 416.397 361.405 415.812 361.814 415.52C370.177 409.993 374.534 399.729 372.868 389.349C370.616 375.079 357.867 365.195 344.299 367.33C339.883 368.032 333.099 369.933 325.263 378.266C324.912 378.646 324.327 378.676 323.947 378.295C323.567 377.945 323.567 377.36 323.918 376.98C332.134 368.207 339.327 366.219 344.006 365.459C358.51 363.178 372.282 373.763 374.709 389.056C376.464 400.168 371.815 411.163 362.838 417.099C362.692 417.216 362.516 417.245 362.34 417.245Z" fill="#231F20"/>
<path d="M306.461 384.173C305.73 383.998 305.437 383.501 305.554 383.003C305.613 382.74 307.221 376.833 311.783 374.933C317.485 372.535 324.064 377.828 324.356 378.062C324.766 378.383 324.824 378.968 324.503 379.377C324.181 379.787 323.596 379.845 323.187 379.524C323.128 379.465 317.192 374.699 312.543 376.658C308.829 378.208 307.397 383.413 307.397 383.471C307.251 383.91 306.87 384.173 306.461 384.173Z" fill="#231F20"/>
<path d="M301.549 416.251C299.882 416.251 297.951 415.812 295.875 414.642C295.437 414.379 295.262 413.824 295.525 413.356C295.788 412.917 296.343 412.742 296.811 413.005C303.508 416.777 307.777 411.63 307.952 411.397C308.274 410.987 308.859 410.929 309.268 411.25C309.678 411.572 309.736 412.157 309.414 412.566C309.356 412.625 306.374 416.251 301.549 416.251Z" fill="#231F20"/>
<path d="M381.787 207.204H379.623C372.693 207.204 367.049 199.221 367.049 189.426C367.049 179.63 372.693 171.647 379.623 171.647H381.231C381.758 171.647 382.166 172.056 382.166 172.583C382.166 173.109 381.758 173.518 381.231 173.518H379.623C373.716 173.518 368.92 180.653 368.92 189.426C368.92 198.198 373.716 205.333 379.623 205.333H381.787C382.313 205.333 382.722 205.742 382.722 206.269C382.722 206.766 382.313 207.204 381.787 207.204Z" fill="#231F20"/>
<path d="M382.108 207.204C376.464 207.204 372.02 199.397 372.02 189.426C372.02 179.454 376.435 171.647 382.108 171.647C387.751 171.647 392.197 179.454 392.197 189.426C392.197 199.397 387.751 207.204 382.108 207.204ZM382.108 173.489C377.663 173.489 373.892 180.77 373.892 189.396C373.892 198.022 377.663 205.304 382.108 205.304C386.553 205.304 390.325 198.022 390.325 189.396C390.325 180.77 386.553 173.489 382.108 173.489Z" fill="#231F20"/>
<path d="M328.45 204.397C324.357 201.18 322.573 196.209 322.573 189.425C322.573 183.08 324.386 178.08 327.807 174.951C328.187 174.6 328.772 174.629 329.123 175.01C329.474 175.39 329.445 175.975 329.064 176.325C326.023 179.074 324.444 183.606 324.444 189.396C324.444 195.625 325.994 200.099 329.035 202.73C329.415 203.081 329.474 203.666 329.123 204.046C328.977 204.28 328.714 204.397 328.45 204.397Z" fill="#231F20"/>
<path d="M376.406 173.314C375.85 173.284 375.441 172.875 375.47 172.349C375.762 163.927 373.453 157.085 368.657 151.938C359.885 142.581 345.644 142.055 345.497 142.055C345.234 140.154 351.814 135.329 361.2 139.16C363.277 139.423 384.798 142.903 383.804 172.436C383.775 172.933 383.365 173.343 382.868 173.343C382.312 173.314 381.904 172.904 381.933 172.378C382.927 143.312 361.112 141.06 360.908 141.031C355.557 138.867 351.375 139.598 348.831 140.534C353.773 141.236 363.306 143.517 370.031 150.681C375.207 156.207 377.663 163.518 377.371 172.436C377.312 172.933 376.903 173.314 376.406 173.314Z" fill="#231F20"/>
<path d="M310.116 378.032C293.361 319.959 305.934 284.197 306.08 283.846C306.256 283.349 306.783 283.115 307.28 283.29C307.777 283.466 308.011 284.021 307.835 284.489C307.718 284.84 295.349 320.076 311.023 376.862C311.169 377.36 310.876 377.886 310.379 378.032C310.291 378.032 310.204 378.032 310.116 378.032Z" fill="#231F20"/>
<path d="M75.0735 267.968C73.9916 267.032 74.1673 266.477 74.6059 266.213L88.115 258.581C88.5536 258.347 89.139 258.494 89.4022 258.932C89.6654 259.371 89.4896 259.956 89.0509 260.219L75.5418 267.851C75.3956 267.939 75.2489 267.968 75.0735 267.968Z" fill="#231F20"/>
<path d="M580.366 231.797C582.617 231.797 584.46 229.955 584.46 227.703C584.46 225.452 582.617 223.61 580.366 223.61C578.114 223.61 576.272 225.452 576.272 227.703C576.272 229.984 578.114 231.797 580.366 231.797Z" fill="#231F20"/>
<path d="M612.092 232.03C614.46 232.03 616.39 230.1 616.39 227.732C616.39 225.363 614.46 223.433 612.092 223.433C609.723 223.433 607.793 225.363 607.793 227.732C607.793 230.1 609.723 232.03 612.092 232.03Z" fill="#231F20"/>
<path d="M643.818 231.708C646.011 231.708 647.795 229.925 647.795 227.732C647.795 225.539 646.011 223.755 643.818 223.755C641.625 223.755 639.842 225.539 639.842 227.732C639.842 229.925 641.625 231.708 643.818 231.708Z" fill="#231F20"/>
<path d="M580.364 263.757C582.733 263.757 584.663 261.827 584.663 259.459C584.663 257.09 582.733 255.16 580.364 255.16C577.996 255.16 576.066 257.09 576.066 259.459C576.066 261.827 577.996 263.757 580.364 263.757Z" fill="#231F20"/>
<path d="M612.092 263.962C614.577 263.962 616.595 261.944 616.595 259.459C616.595 256.973 614.577 254.955 612.092 254.955C609.606 254.955 607.588 256.973 607.588 259.459C607.588 261.944 609.606 263.962 612.092 263.962Z" fill="#231F20"/>
<path d="M643.818 263.64C646.128 263.64 648 261.769 648 259.459C648 257.149 646.128 255.277 643.818 255.277C641.508 255.277 639.637 257.149 639.637 259.459C639.637 261.769 641.508 263.64 643.818 263.64Z" fill="#231F20"/>
<path d="M580.364 295.162C582.558 295.162 584.342 293.379 584.342 291.185C584.342 288.992 582.558 287.209 580.364 287.209C578.171 287.209 576.388 288.992 576.388 291.185C576.388 293.379 578.171 295.162 580.364 295.162Z" fill="#231F20"/>
<path d="M612.092 295.396C614.402 295.396 616.273 293.525 616.273 291.215C616.273 288.905 614.402 287.033 612.092 287.033C609.782 287.033 607.91 288.905 607.91 291.215C607.91 293.496 609.782 295.396 612.092 295.396Z" fill="#231F20"/>
<path d="M643.818 295.104C645.982 295.104 647.737 293.349 647.737 291.185C647.737 289.022 645.982 287.267 643.818 287.267C641.654 287.267 639.9 289.022 639.9 291.185C639.929 293.349 641.683 295.104 643.818 295.104Z" fill="#231F20"/>
<path d="M429.859 219.573C428.924 218.638 428.923 138.019 428.923 138.019C428.923 125.475 439.129 115.27 451.673 115.27H571.943C584.488 115.27 594.693 125.475 594.693 138.019V170.623C594.693 183.168 584.488 193.373 571.943 193.373H456.469L430.532 219.31C430.356 219.486 430.093 219.573 429.859 219.573ZM451.673 117.141C440.152 117.141 430.795 126.498 430.795 138.019V216.386L455.416 191.765C456.089 191.502 571.943 191.502 571.943 191.502C583.464 191.502 592.821 182.144 592.821 170.623V138.019C592.821 126.498 583.464 117.141 571.943 117.141H451.673Z" fill="#231F20"/>
<path d="M511.794 164.336C505.799 164.336 500.916 159.453 500.916 153.459C500.916 147.464 505.799 142.581 511.794 142.581C517.788 142.581 522.671 147.464 522.671 153.459C522.7 159.453 517.817 164.336 511.794 164.336ZM511.794 144.452C506.823 144.452 502.787 148.488 502.787 153.459C502.787 158.43 506.823 162.465 511.794 162.465C516.765 162.465 520.8 158.43 520.8 153.459C520.829 148.488 516.765 144.452 511.794 144.452Z" fill="#231F20"/>
<path d="M464.218 164.336C458.223 164.336 453.34 159.453 453.34 153.459C453.34 147.464 458.223 142.581 464.218 142.581C470.212 142.581 475.096 147.464 475.096 153.459C475.096 159.453 470.212 164.336 464.218 164.336ZM464.218 144.452C459.247 144.452 455.211 148.488 455.211 153.459C455.211 158.43 459.247 162.465 464.218 162.465C469.189 162.465 473.224 158.43 473.224 153.459C473.224 148.488 469.16 144.452 464.218 144.452Z" fill="#231F20"/>
<path d="M561.299 164.336C555.305 164.336 550.421 159.453 550.421 153.459C550.421 147.464 555.305 142.581 561.299 142.581C567.294 142.581 572.177 147.464 572.177 153.459C572.177 159.453 567.294 164.336 561.299 164.336ZM561.299 144.452C556.328 144.452 552.293 148.488 552.293 153.459C552.293 158.43 556.328 162.465 561.299 162.465C566.27 162.465 570.306 158.43 570.306 153.459C570.306 148.488 566.27 144.452 561.299 144.452Z" fill="#231F20"/>
<path d="M249.966 236.301H167.623C167.097 236.301 166.687 235.891 166.687 235.365C166.687 234.838 167.097 234.429 167.623 234.429H248.651L228.737 178.11H146.803C146.276 178.11 145.867 177.701 145.867 177.175C145.867 176.648 146.276 176.239 146.803 176.239H229.38C230.258 176.853 250.844 235.072 250.844 235.072C250.551 236.154 250.259 236.301 249.966 236.301Z" fill="#231F20"/>
<path d="M167.595 236.299C166.717 235.685 146.131 177.466 146.131 177.466C145.956 176.969 146.219 176.442 146.687 176.267C147.184 176.092 147.71 176.355 147.886 176.823L168.472 235.013C168.647 235.51 168.384 236.036 167.887 236.212C167.828 236.27 167.712 236.299 167.595 236.299Z" fill="#231F20"/>
<path d="M151.335 190.303H104.286C103.759 190.303 103.351 189.893 103.351 189.367C103.351 188.841 103.759 188.431 104.286 188.431H151.335C151.862 188.431 152.271 188.841 152.271 189.367C152.271 189.893 151.862 190.303 151.335 190.303Z" fill="#231F20"/>
<path d="M162.067 178.11C161.189 177.496 150.195 146.441 150.195 146.441H88.5835C88.0572 146.441 87.6476 146.032 87.6476 145.506C87.6476 144.979 88.0572 144.57 88.5835 144.57H150.868C151.745 145.184 162.944 176.852 162.944 176.852C163.12 177.349 162.857 177.876 162.389 178.051C162.301 178.08 162.184 178.11 162.067 178.11Z" fill="#231F20"/>
<path d="M104.286 190.303C103.409 189.689 87.8825 145.798 87.8825 145.798C87.707 145.3 87.97 144.774 88.4379 144.599C88.935 144.423 89.4611 144.686 89.6365 145.154L105.164 189.045C105.339 189.543 105.076 190.069 104.608 190.244C104.521 190.303 104.403 190.303 104.286 190.303Z" fill="#231F20"/>
<path d="M222.363 201.268H170.108C169.582 201.268 169.173 200.859 169.173 200.333C169.173 199.806 169.582 199.397 170.108 199.397H222.363C222.889 199.397 223.299 199.806 223.299 200.333C223.299 200.859 222.86 201.268 222.363 201.268Z" fill="#231F20"/>
<path d="M226.632 213.111H174.377C173.851 213.111 173.442 212.702 173.442 212.175C173.442 211.649 173.851 211.24 174.377 211.24H226.632C227.158 211.24 227.568 211.649 227.568 212.175C227.568 212.702 227.158 213.111 226.632 213.111Z" fill="#231F20"/>
<path d="M135.341 245.978C131.861 243.61 129.083 241.212 126.539 238.639C126.159 238.259 126.159 237.674 126.539 237.294C126.89 236.943 127.504 236.943 127.855 237.294C130.34 239.808 133.06 242.148 135.896 244.282C136.305 244.604 136.393 245.189 136.072 245.598C135.896 245.832 135.604 245.978 135.341 245.978ZM120.135 230.773C117.24 227.527 115.252 224.427 113.468 221.211C113.205 220.772 113.38 220.188 113.848 219.954C114.316 219.72 114.872 219.866 115.135 220.334C116.86 223.463 118.819 226.474 120.896 229.282C121.217 229.691 121.129 230.276 120.72 230.597C120.515 230.714 120.34 230.773 120.135 230.773ZM109.725 211.941C108.058 209.31 107.327 207.263 106.713 205.157C106.567 204.66 106.83 204.134 107.327 203.988C107.824 203.812 108.351 204.105 108.497 204.602C109.111 206.649 109.813 208.666 110.603 210.626C110.778 211.123 110.544 211.649 110.076 211.854C109.959 211.912 109.842 211.941 109.725 211.941Z" fill="#231F20"/>
<path d="M337.281 198.344C335.585 198.344 333.977 197.613 332.866 196.356C331.609 194.923 331.257 193.022 331.842 191.18C332.632 188.724 334.357 188.958 335.322 189.045C336.491 187.7 336.96 182.115 337.194 178.665C337.223 178.138 337.661 177.817 338.187 177.788C338.714 177.817 339.094 178.255 339.065 178.782C339.006 179.688 338.509 187.73 337.749 189.66C337.164 191.18 335.79 191.005 335.088 190.917C334.182 190.8 333.948 190.771 333.626 191.765C333.246 192.993 333.48 194.221 334.27 195.157C335.147 196.18 336.58 196.677 337.954 196.414C338.451 196.327 338.948 196.677 339.036 197.174C339.123 197.672 338.772 198.169 338.275 198.257C337.954 198.315 337.632 198.344 337.281 198.344Z" fill="#231F20"/>
</svg>
