<svg width="41" height="41" viewBox="0 0 41 41" fill="none" xmlns="http://www.w3.org/2000/svg">
<path d="M4.78953 33.6712H36.2105C38.2956 31.1732 39.8026 28.1798 40.5252 24.8973H0.474823C1.19738 28.2004 2.70443 31.1939 4.78953 33.6712Z" fill="#FFD400"/>
<path d="M36.2311 7.34946H4.76888C2.68379 9.84744 1.17674 12.8409 0.474823 16.1234H40.5458C39.8233 12.8409 38.3162 9.84744 36.2311 7.34946Z" fill="#FFD400"/>
<path d="M36.2105 33.6919H4.78952C8.4436 38.0272 13.8525 40.8349 19.9219 41H21.078C27.1475 40.8349 32.5564 38.0272 36.2105 33.6919Z" fill="#231F20"/>
<path d="M4.7688 7.34945H36.231C32.515 2.91088 26.9616 0.0619335 20.727 0H20.2728C14.0588 0.0619335 8.48481 2.91088 4.7688 7.34945Z" fill="#231F20"/>
<path d="M41 20.6239V20.3968C41 18.9311 40.8348 17.5066 40.5252 16.144H0.474824C0.165156 17.5066 0 18.9311 0 20.3968V20.6239C0 22.0897 0.165156 23.5348 0.474824 24.918H40.5252C40.8348 23.5141 41 22.0897 41 20.6239Z" fill="#231F20"/>
</svg>
