<svg width="554" height="456" viewBox="0 0 554 456" fill="none" xmlns="http://www.w3.org/2000/svg">
<path d="M0.00162932 342.33L22.574 422.411C22.574 422.411 26.0336 439.568 38.1706 442.772L191.896 443.453C191.896 443.453 209.591 440.305 209.931 422.497L186.678 343.323C186.678 343.323 183.219 324.664 164.758 324.664H9.04747C9.01911 324.664 -0.140158 329.966 0.00162932 342.33Z" fill="#FFD400"/>
<path d="M222.578 428.934H271.609C271.609 428.934 273.026 424.283 274.16 422.78C275.295 421.306 277.025 417.024 273.65 413.167C270.276 409.31 268.971 408.885 259.925 408.29C250.879 407.694 236.729 408.8 234.574 410.104C232.418 411.409 228.789 412.855 226.889 418.129C224.989 423.404 222.578 428.934 222.578 428.934Z" fill="white"/>
<path d="M549.936 85.9509H269.226V299.028H549.936V85.9509Z" fill="white"/>
<path d="M521.267 110.736H403.726V257.06H521.267V110.736Z" fill="#FFD400"/>
<path d="M439.512 118.534C439.512 118.534 446.602 115.017 449.239 115.641C451.876 116.237 457.945 117.853 463.446 121.086C468.919 124.347 476.434 125.538 482.928 123.496C489.422 121.455 495.915 130.387 495.915 132.032C495.915 133.648 497.503 149.273 493.363 157.015C493.363 157.015 496.823 158.234 498.212 161.523C500.339 166.486 499.602 174.398 489.28 175.617C489.28 175.617 487.663 206.441 489.989 207.349C492.342 208.256 525.832 214.892 525.832 225.072V252.466H409.851L409.453 240.867C409.453 240.867 409.454 234.742 412.205 232.644L414.275 228.135C414.275 228.135 432.65 206.782 456.243 207.973L455.421 198.048C455.421 198.048 438.917 198.643 437.471 186.138C436.025 173.632 440.533 186.875 441.497 144.169C441.497 144.169 429.644 143.97 432.593 127.239C433.217 123.893 439.512 118.534 439.512 118.534Z" fill="white"/>
<path d="M553.367 61.8757H272.657V90.5168H553.367V61.8757Z" fill="#231F20"/>
<path d="M348.712 345.847C340.091 318.936 322.141 297.696 315.25 286.835C308.359 275.974 269.397 233.864 227.116 235.508C227.116 235.508 224.762 257.826 209.194 258.534C193.626 259.243 192.917 241.208 192.917 241.208C192.917 241.208 166.714 239.138 133.253 268.431C99.791 297.724 95.3108 315.533 95.3108 315.533L175.335 316.157C175.335 316.157 190.024 313.945 196.49 335.156C202.927 356.367 219.913 417.109 219.913 417.109C219.913 417.109 219.26 427.516 216.793 428.962H222.607C222.607 428.962 227.314 412.26 233.354 410.842C239.394 409.424 249.688 407.95 256.579 408.29C263.47 408.63 273.65 409.197 275.38 416.627C277.11 424.028 271.07 423.574 271.665 428.991H292.451C292.451 428.991 298.208 431.741 296.648 434.917C296.648 434.917 320.865 433.953 334.789 416.315C348.712 398.62 357.333 372.758 348.712 345.847ZM294.861 355.857C288.991 371.822 268.46 379.876 268.46 379.876L282.753 314.115C282.781 314.115 301.639 337.396 294.861 355.857Z" fill="#231F20"/>
<path d="M445.184 342.642C445.184 342.642 449.834 337.566 445.609 324.89C441.383 312.214 446.034 298.66 462.084 296.987C478.163 295.285 486.188 310.513 484.061 320.665C481.935 330.817 481.112 333.766 484.061 343.493C487.011 353.219 485.338 380.698 457.406 379.847C432.366 379.081 435.457 353.191 445.184 342.642Z" fill="white"/>
<path d="M481.821 279.462C481.821 285.871 478.419 291.088 474.222 291.088C470.025 291.088 466.622 285.871 466.622 279.462C466.622 273.053 470.025 267.835 474.222 267.835C478.419 267.835 481.821 273.053 481.821 279.462Z" fill="white"/>
<path d="M449.778 405.17C427.829 404.518 424.71 400.435 424.71 400.435V402.561C420.428 402.164 402.109 401.767 401.683 422.922C401.173 446.856 424.71 447.962 424.71 447.962V450.967C424.71 450.967 428.708 454.512 450.571 454.512C472.435 454.512 474.789 450.57 474.789 450.57V400.463C474.817 400.463 471.727 405.822 449.778 405.17ZM409.369 420.71C410.475 409.197 424.398 410.388 424.398 410.388L424.71 408.375V440.05C418.528 438.377 408.263 432.223 409.369 420.71Z" fill="#231F20"/>
<path d="M474.817 400.066C474.817 402.902 463.617 405.17 449.778 405.17C435.94 405.17 424.738 402.873 424.738 400.066C424.738 397.259 435.94 394.962 449.778 394.962C463.588 394.962 474.817 397.259 474.817 400.066Z" fill="white"/>
<path d="M114.877 380.499C116.72 386.738 113.941 393.062 108.695 394.593C103.449 396.153 97.6926 392.353 95.8494 386.114C94.0062 379.876 96.785 373.552 102.031 372.02C107.277 370.489 113.034 374.289 114.877 380.499Z" fill="white"/>
<path opacity="0.2" d="M159.512 177.829L201.595 167.337C201.595 167.337 199.808 154.321 201.112 151.939L216.595 170.825C216.595 170.825 222.806 167.082 229.186 177.999C229.186 177.999 232.844 186.365 227.825 192.433C227.825 192.433 233.638 199.154 228.959 210.44C224.28 221.726 223.741 222.067 223.741 222.067C223.741 222.067 243.932 213.616 245.86 205.733C245.86 205.733 239.82 183.104 238.913 171.732C238.005 160.361 238.402 153.527 238.402 153.527C238.402 153.527 233.411 134.726 213.306 132.656C187.274 129.962 166.97 140.171 166.97 140.171C166.97 140.171 150.069 148.082 159.512 177.829Z" fill="#231F20"/>
<path d="M154.208 179.928L201.594 167.365C201.594 167.365 199.297 155.966 200.318 155.002L211.519 175.249C211.519 175.249 215.291 170.513 218.438 170.314C221.558 170.116 227.995 171.988 229.81 180.296C231.625 188.605 228.136 193.88 220.196 195.071C220.196 195.071 225.046 200.487 222.011 210.525C218.977 220.564 216.198 225.583 216.198 225.583L222.323 223.258L227.116 235.536C227.116 235.536 224.563 254.082 212.398 258.109C200.233 262.107 194.618 249.403 192.917 241.265L190.563 228.958C190.563 228.958 173.889 232.559 166.034 217.671C158.349 203.124 154.208 179.928 154.208 179.928Z" fill="white"/>
<path opacity="0.2" d="M170.741 224.052L170.089 223.031L167.423 230.29L174.57 226.859L170.741 224.052Z" fill="#231F20"/>
<path d="M260.634 428.934H264.831V420.228C264.859 420.228 260.067 424.198 260.634 428.934Z" fill="#231F20"/>
<path d="M189.911 29.435L183.162 0L257.657 22.6575L201.566 70.7516L192.548 36.4109L253.63 23.1963L189.911 29.435Z" fill="#FFD400"/>
<path d="M195.525 47.2149L178.88 49.3417L189.911 29.4348L255.7 22.6573L192.548 36.4107L195.525 47.2149Z" fill="#FFD400"/>
<path d="M503.884 70.2411C503.884 72.1978 502.296 73.7574 500.367 73.7574C498.411 73.7574 496.851 72.1694 496.851 70.2411C496.851 68.2845 498.439 66.7249 500.367 66.7249C502.324 66.7249 503.884 68.2845 503.884 70.2411Z" fill="white"/>
<path d="M517.637 70.2411C517.637 72.1978 516.049 73.7574 514.121 73.7574C512.164 73.7574 510.605 72.1694 510.605 70.2411C510.605 68.2845 512.193 66.7249 514.121 66.7249C516.049 66.7249 517.637 68.2845 517.637 70.2411Z" fill="white"/>
<path d="M530.71 70.2411C530.71 72.1978 529.122 73.7574 527.193 73.7574C525.265 73.7574 523.677 72.1694 523.677 70.2411C523.677 68.2845 525.265 66.7249 527.193 66.7249C529.122 66.7249 530.71 68.2845 530.71 70.2411Z" fill="white"/>
<path d="M69.5908 232.729C68.5132 232.049 68.5133 231.453 68.9103 231.056L77.7574 222.209C78.1261 221.812 78.7499 221.812 79.1469 222.209C79.5155 222.577 79.5155 223.201 79.1469 223.598L70.2998 232.474C70.0729 232.616 69.8177 232.729 69.5908 232.729Z" fill="#231F20"/>
<path d="M78.438 232.73C77.7574 232.446 68.8819 223.57 68.8819 223.57C68.5132 223.202 68.5132 222.578 68.8819 222.181C69.2789 221.784 69.8744 221.784 70.2714 222.181L79.1185 231.028C79.4872 231.397 79.4872 232.021 79.1185 232.418C78.9484 232.616 78.6932 232.73 78.438 232.73Z" fill="#231F20"/>
<path d="M61.5652 216.651C59.2115 216.651 57.2832 214.722 57.2832 212.369C57.2832 210.015 59.2115 208.087 61.5652 208.087C63.9189 208.087 65.8472 210.015 65.8472 212.369C65.8472 214.722 63.9189 216.651 61.5652 216.651ZM61.5652 210.015C60.2891 210.015 59.2397 211.064 59.2397 212.34C59.2397 213.645 60.2891 214.694 61.5652 214.694C62.8413 214.694 63.8907 213.645 63.8907 212.34C63.8907 211.093 62.8413 210.015 61.5652 210.015Z" fill="#231F20"/>
<path d="M522.429 350.497C520.501 350.497 518.913 348.909 518.913 346.981C518.913 345.053 520.473 343.493 522.429 343.493C524.358 343.493 525.946 345.053 525.946 346.981C525.917 348.909 524.358 350.497 522.429 350.497ZM522.429 345.421C521.579 345.421 520.87 346.13 520.87 346.981C520.87 347.832 521.579 348.541 522.429 348.541C523.28 348.541 523.989 347.832 523.989 346.981C523.989 346.13 523.28 345.421 522.429 345.421Z" fill="#231F20"/>
<path d="M178.596 50.1923C177.66 49.8237 177.49 49.2282 177.745 48.7462L188.492 28.9527C189.258 28.4422 257.571 21.6648 257.571 21.6648C258.025 21.5797 258.592 22.0051 258.649 22.5439C258.705 23.0827 258.308 23.5648 257.769 23.6215L189.967 30.3705L179.475 49.7103C179.277 50.0222 178.964 50.1923 178.596 50.1923Z" fill="#231F20"/>
<path d="M178.88 50.3344C177.802 49.3986 177.916 48.9449 178.199 48.6329L192.037 35.5885C192.434 35.2199 193.058 35.2198 193.427 35.6452C193.795 36.0422 193.767 36.6661 193.37 37.0348L181.715 48.0091L195.383 46.2792C195.922 46.2225 196.405 46.5912 196.49 47.13C196.546 47.6688 196.178 48.1508 195.639 48.2359L178.993 50.3627C178.965 50.3343 178.908 50.3344 178.88 50.3344Z" fill="#231F20"/>
<path d="M189.911 30.4272C189.457 30.4272 189.06 30.1153 188.946 29.6616L182.198 0.226612C183.445 -0.936041 258.507 21.7216 258.507 21.7216C258.961 21.8633 259.244 22.2887 259.188 22.7424C259.131 23.1961 258.763 23.5647 258.309 23.6215L189.996 30.3989C189.996 30.4273 189.967 30.4272 189.911 30.4272ZM184.495 1.44596L190.676 28.3855L253.233 22.1752L184.495 1.44596Z" fill="#231F20"/>
<path d="M201.566 71.7442C200.63 71.0069 191.782 36.5526 191.782 36.5526C192.519 35.3615 258.025 21.6933 258.025 21.6933C258.479 21.6082 258.905 21.8351 259.103 22.2321C259.302 22.6291 259.188 23.1112 258.848 23.3948L202.19 71.4889C202.02 71.659 201.793 71.7442 201.566 71.7442ZM193.937 37.063L202.133 69.0218L254.679 24.4156L193.937 37.063Z" fill="#231F20"/>
<path d="M31.8467 302.148C29.8333 300.418 27.82 298.093 25.5514 295.03C25.2395 294.605 25.3248 293.981 25.7501 293.669C26.1755 293.329 26.7993 293.442 27.1112 293.868C29.3514 296.873 31.3079 299.171 32.584 300.532C32.9526 300.929 32.9242 301.552 32.5272 301.921C32.3287 302.063 32.0735 302.148 31.8467 302.148ZM21.4397 288.196C19.0577 285.247 17.6113 282.666 16.3069 280.058C16.0517 279.575 16.2499 278.98 16.732 278.753C17.214 278.498 17.8101 278.696 18.037 279.178C19.3414 281.731 20.7593 284.255 22.2622 286.693C22.5458 287.147 22.4037 287.742 21.95 288.054C21.7798 288.168 21.6099 288.196 21.4397 288.196ZM13.5563 272.685C11.5429 269.367 10.5785 266.588 9.72778 263.78C9.55763 263.27 9.86951 262.703 10.3799 262.561C10.8904 262.391 11.4297 262.703 11.5998 263.213C12.4222 265.936 13.3864 268.686 14.4639 271.323C14.6624 271.834 14.435 272.401 13.9246 272.6C13.8112 272.685 13.6981 272.685 13.5563 272.685ZM8.5086 256.067C8.05489 256.067 7.65763 255.755 7.5442 255.302C6.9487 252.437 6.49501 249.517 6.15472 246.624C6.09801 246.085 6.46679 245.603 7.00558 245.547C7.51601 245.49 8.02681 245.887 8.08352 246.397C8.39545 249.233 8.87747 252.097 9.44462 254.905C9.55805 255.443 9.21771 255.954 8.67892 256.067C8.6222 256.067 8.56532 256.067 8.5086 256.067ZM6.55211 238.798C6.01332 238.798 5.58771 238.372 5.58771 237.833C5.55935 237.181 5.55933 236.501 5.55933 235.82C5.55933 233.58 5.64462 231.311 5.78641 229.043C5.81476 228.504 6.21141 228.192 6.83527 228.135C7.37406 228.164 7.77126 228.646 7.7429 229.184C7.60111 231.396 7.51582 233.637 7.51582 235.82C7.51582 236.472 7.51585 237.125 7.5442 237.805C7.5442 238.344 7.0909 238.769 6.55211 238.798ZM7.7429 221.443C7.06232 221.358 6.69343 220.847 6.7785 220.309C7.23222 217.444 7.82803 214.552 8.5086 211.688C8.65039 211.177 9.1606 210.866 9.69939 210.979C10.2382 211.121 10.5501 211.631 10.4083 212.17C9.72775 214.977 9.13266 217.813 8.7073 220.621C8.62223 221.131 8.22498 221.443 7.7429 221.443ZM11.8546 204.57C11.0322 204.343 10.7491 203.805 10.9193 203.294C11.8267 200.543 12.8471 197.793 13.953 195.071C14.1515 194.56 14.7192 194.333 15.2296 194.532C15.7401 194.73 15.9668 195.297 15.7683 195.808C14.6623 198.473 13.6696 201.196 12.7622 203.89C12.6488 204.315 12.2799 204.57 11.8546 204.57ZM18.4621 188.463C17.5546 188.123 17.356 187.556 17.5828 187.045C18.6037 184.947 19.7101 182.82 20.8727 180.722C21.1279 180.24 21.4109 179.758 21.6945 179.275C21.9781 178.822 22.5742 178.652 23.0279 178.935C23.4816 179.219 23.6514 179.814 23.3678 180.268C23.0843 180.722 22.829 181.175 22.5738 181.657C21.4111 183.727 20.3338 185.826 19.3129 187.896C19.1711 188.265 18.8307 188.463 18.4621 188.463ZM99.7341 179.446C98.6282 178.311 98.8837 177.744 99.3942 177.546C101.237 176.837 102.995 175.617 104.64 173.887C105.065 173.462 105.434 173.009 105.803 172.583C106.143 172.158 106.767 172.101 107.192 172.47C107.618 172.81 107.675 173.434 107.334 173.831C106.937 174.285 106.54 174.767 106.086 175.22C104.243 177.149 102.23 178.566 100.103 179.36C99.9897 179.417 99.8475 179.446 99.7341 179.446ZM91.2269 179.417C88.3344 178.453 85.7545 176.808 83.2874 174.511C82.8904 174.143 82.8619 173.519 83.2306 173.122C83.5992 172.725 84.2231 172.697 84.6201 173.065C86.917 175.192 89.2422 176.667 91.5675 177.489C92.0779 177.659 92.333 178.226 92.1629 178.737C92.0211 179.19 91.6522 179.417 91.2269 179.417ZM27.6215 173.746C26.5722 173.15 26.5155 172.555 26.8841 172.129C28.7841 169.917 30.8824 167.819 33.151 165.891C33.5764 165.55 34.1718 165.607 34.5405 166.004C34.8808 166.401 34.824 167.025 34.4269 167.394C32.2434 169.237 30.202 171.279 28.3588 173.405C28.1886 173.632 27.905 173.746 27.6215 173.746ZM78.3248 168.159C75.9144 165.409 74.4396 162.8 73.1352 160.049C72.9083 159.567 73.1066 158.972 73.5887 158.745C74.0707 158.518 74.6661 158.716 74.893 159.198C76.1691 161.864 77.5869 164.359 79.1182 166.628C79.4301 167.082 79.3172 167.677 78.8634 167.989C78.7217 168.131 78.5233 168.159 78.3248 168.159ZM110.227 166.458C109.603 166.401 109.206 165.919 109.262 165.409C109.291 162.459 108.27 160.361 106.285 158.518C105.888 158.149 105.859 157.525 106.228 157.128C106.597 156.76 107.221 156.731 107.618 157.072C110.028 159.312 111.247 161.892 111.247 164.728C111.162 166.061 110.737 166.458 110.227 166.458ZM40.8357 162.516C39.7298 161.609 39.8718 160.985 40.3255 160.701C42.7642 159.17 45.4015 157.781 48.0954 156.533C48.5775 156.306 49.1729 156.533 49.3997 157.015C49.6266 157.497 49.4 158.092 48.9179 158.319C46.2806 159.51 43.7287 160.871 41.3467 162.346C41.1765 162.459 41.0059 162.516 40.8357 162.516ZM56.631 155.313C56.2056 155.313 55.8368 155.058 55.695 154.633C55.5248 154.122 55.809 153.555 56.3195 153.414C59.0985 152.534 61.9626 151.797 64.8551 151.202C65.3938 151.088 65.904 151.428 66.0175 151.967C66.1309 152.506 65.7905 153.016 65.2518 153.13C62.4444 153.697 59.6372 154.434 56.9432 155.285C56.8298 155.285 56.7161 155.313 56.631 155.313ZM99.4509 154.434C96.6719 153.47 93.8928 152.79 90.8586 152.279C90.3198 152.194 89.951 151.684 90.0361 151.173C90.1212 150.634 90.6313 150.323 91.1417 150.351C94.2894 150.861 97.2103 151.599 99.7625 152.534C100.273 152.705 100.528 153.272 100.329 153.782C100.216 154.179 99.8479 154.434 99.4509 154.434ZM70.7813 152.534C70.3559 152.534 69.9871 152.279 69.8453 151.882C68.9379 149.131 68.1727 146.267 67.5489 143.375C67.4354 142.864 67.7758 142.326 68.3146 142.212C68.8534 142.099 69.3636 142.439 69.477 142.978C70.0725 145.785 70.8099 148.593 71.6889 151.258C71.8591 151.769 71.5756 152.336 71.0652 152.506C70.9801 152.534 70.8947 152.534 70.7813 152.534ZM73.6454 151.854C73.135 151.854 72.7094 151.485 72.681 150.975C72.6243 150.436 73.0215 149.954 73.5603 149.925C76.5094 149.642 79.4873 149.528 82.3797 149.614C82.9185 149.642 83.3434 150.067 83.3151 150.606C83.3151 151.145 82.8617 151.457 82.323 151.542C79.5439 151.485 76.623 151.599 73.7306 151.854C73.7306 151.854 73.6738 151.854 73.6454 151.854ZM67.2083 135.548C66.6978 135.548 66.2729 135.18 66.2445 134.669C66.0177 132.202 65.9039 129.707 65.9039 127.268C65.9039 126.786 65.904 126.332 65.9323 125.85C65.9323 125.311 66.3863 124.886 66.8967 124.886C67.4639 124.886 67.8888 125.34 67.8604 125.878C67.8604 126.332 67.8604 126.786 67.8604 127.24C67.8604 129.622 67.9742 132.06 68.201 134.471C68.2578 135.01 67.8606 135.492 67.3218 135.52C67.2934 135.548 67.265 135.548 67.2083 135.548ZM67.5773 118.165C66.8967 118.08 66.5278 117.598 66.6129 117.059C67.0099 114.11 67.6057 111.218 68.3713 108.41C68.5131 107.9 69.0517 107.588 69.5621 107.73C70.0726 107.872 70.3845 108.41 70.2427 108.921C69.5054 111.643 68.938 114.479 68.541 117.314C68.4559 117.825 68.031 118.165 67.5773 118.165ZM72.1424 101.406C71.2633 101.122 71.037 100.555 71.2355 100.045C72.3698 97.3226 73.7307 94.6853 75.2336 92.1615C75.5172 91.7078 76.1126 91.5376 76.5663 91.8212C77.02 92.1048 77.1905 92.7004 76.9069 93.1541C75.4607 95.5928 74.156 98.145 73.05 100.782C72.8799 101.208 72.5111 101.406 72.1424 101.406ZM81.0186 86.5184C79.9978 85.9796 79.9126 85.3841 80.2529 84.9304C82.0394 82.6051 83.9678 80.3365 85.9528 78.2381C86.3214 77.8411 86.9453 77.8127 87.3423 78.1813C87.7393 78.55 87.7677 79.1738 87.399 79.5708C85.4707 81.6409 83.5993 83.8528 81.8411 86.1213C81.5859 86.3766 81.3022 86.5184 81.0186 86.5184ZM92.8718 73.8143C91.7659 73.077 91.8227 72.4531 92.2197 72.1128C94.4032 70.1845 96.7283 68.3413 99.1103 66.6398C99.5357 66.3279 100.159 66.413 100.471 66.8667C100.783 67.2921 100.699 67.9159 100.245 68.2278C97.9197 69.9009 95.6508 71.6875 93.524 73.5874C93.3255 73.7576 93.0987 73.8143 92.8718 73.8143ZM106.994 63.6907C105.888 62.7266 106.03 62.131 106.512 61.8758C109.036 60.4296 111.645 59.0685 114.31 57.8207C114.792 57.5939 115.388 57.7923 115.615 58.3028C115.841 58.7848 115.615 59.3804 115.133 59.6073C112.524 60.7983 109.943 62.1311 107.504 63.5774C107.305 63.6341 107.164 63.6907 106.994 63.6907ZM122.761 56.4029C121.655 55.2402 121.938 54.6731 122.42 54.503C125.142 53.5388 127.978 52.688 130.814 51.9507C131.324 51.8089 131.863 52.1209 132.005 52.6597C132.147 53.1701 131.835 53.709 131.296 53.8508C128.489 54.5881 125.709 55.4387 123.044 56.3745C122.987 56.3745 122.874 56.4029 122.761 56.4029ZM139.605 52.0359C139.151 52.0359 138.725 51.6956 138.64 51.2135C138.555 50.6747 138.896 50.1926 139.434 50.0792C142.299 49.5688 145.22 49.2001 148.14 48.9449C148.679 48.8314 149.162 49.2851 149.218 49.8239C149.275 50.3627 148.878 50.8449 148.339 50.8732C145.475 51.1284 142.611 51.5254 139.775 52.0075C139.718 52.0359 139.661 52.0359 139.605 52.0359ZM165.637 50.8165C165.495 50.8165 162.546 50.4478 157.753 50.4478C156.392 50.4478 155.967 50.0224 155.967 49.4837C155.967 48.9449 156.393 48.4912 156.931 48.4912C162.716 48.4912 165.637 48.8598 165.779 48.8598C166.317 48.9165 166.686 49.427 166.629 49.9658C166.516 50.4762 166.119 50.8165 165.637 50.8165Z" fill="#231F20"/>
<path d="M424.71 441.014C424.341 440.957 409.312 437.441 408.404 422.809C408.149 418.697 409.255 415.436 411.665 413.139C416.373 408.63 424.37 409.424 424.71 409.481C425.249 409.537 425.646 410.019 425.561 410.558C425.504 411.097 425.022 411.494 424.483 411.437C424.398 411.437 417.053 410.7 412.998 414.585C411.013 416.485 410.134 419.207 410.333 422.723C411.127 435.853 424.341 438.972 424.88 439.114C425.419 439.228 425.731 439.766 425.618 440.277C425.561 440.702 425.164 441.014 424.71 441.014Z" fill="#231F20"/>
<path d="M424.172 448.925C423.831 448.897 399.075 446.175 400.72 422.837C401.23 415.606 403.725 410.104 408.149 406.446C415.068 400.718 424.143 401.71 424.511 401.767C425.05 401.824 425.419 402.306 425.362 402.845C425.306 403.384 424.796 403.752 424.285 403.696C424.2 403.667 415.636 402.76 409.369 407.949C405.399 411.239 403.13 416.286 402.676 422.95C401.145 444.417 423.321 446.856 424.257 446.941C424.795 446.997 425.192 447.479 425.135 448.018C425.079 448.557 424.654 448.925 424.172 448.925Z" fill="#231F20"/>
<path d="M449.919 455.505C447.254 455.505 423.774 455.363 423.774 450.571C423.774 450.032 424.228 449.607 424.738 449.607C425.277 449.607 425.703 450.032 425.703 450.571C426.44 451.705 435.485 453.548 449.891 453.548C465.346 453.548 473.23 451.507 473.825 450.458C473.825 449.919 474.25 449.55 474.789 449.55C475.328 449.55 475.753 450.06 475.753 450.599C475.782 455.363 452.557 455.505 449.919 455.505Z" fill="#231F20"/>
<path d="M451.791 376.331C451.366 376.331 450.941 376.331 450.515 376.302C438.634 375.934 433.728 370.177 431.714 365.385C427.801 356.112 431.629 343.918 437.556 337.453C437.584 337.424 441.724 332.547 437.782 320.665C435.287 313.15 435.854 305.721 439.399 300.248C442.632 295.257 448.048 292.223 455.109 291.486C455.96 291.4 456.81 291.344 457.632 291.344C463.899 291.344 469.514 294.009 473.456 298.83C477.483 303.793 479.327 310.655 478.164 316.327L477.88 317.631C476.008 326.592 475.385 329.626 478.136 338.7C479.922 344.599 480.234 357.388 473.428 366.576C468.607 373.041 461.319 376.331 451.791 376.331ZM457.605 293.3C456.839 293.3 456.073 293.329 455.279 293.414C448.814 294.094 443.88 296.817 441.015 301.297C437.811 306.26 437.301 313.094 439.626 320.041C443.993 333.114 439.201 338.559 439.002 338.757C433.614 344.627 429.984 356.169 433.529 364.591C436.109 370.688 441.979 374.062 450.572 374.317C460.1 374.658 467.217 371.567 471.84 365.356C477.88 357.19 478.05 345.166 476.235 339.211C473.343 329.654 474.052 326.28 475.952 317.177L476.207 315.873C477.284 310.74 475.583 304.53 471.896 299.993C469.401 296.987 464.893 293.3 457.605 293.3Z" fill="#231F20"/>
<path d="M474.222 287.941C469.486 287.941 465.629 282.298 465.629 275.322C465.629 268.374 469.486 262.731 474.222 262.731C478.958 262.731 482.814 268.374 482.814 275.322C482.814 282.269 478.958 287.941 474.222 287.941ZM474.222 264.688C470.564 264.688 467.586 269.452 467.586 275.35C467.586 281.22 470.564 286.013 474.222 286.013C477.88 286.013 480.858 281.22 480.858 275.35C480.858 269.452 477.88 264.688 474.222 264.688Z" fill="#231F20"/>
<path d="M474.817 451.535C474.278 451.535 473.853 451.109 473.853 450.571V400.463C473.853 399.924 474.278 399.499 474.817 399.499C475.356 399.499 475.782 399.924 475.782 400.463V450.571C475.782 451.109 475.356 451.535 474.817 451.535Z" fill="#231F20"/>
<path d="M424.71 451.932C424.171 451.932 423.746 451.506 423.746 450.967V400.038C423.746 399.499 424.171 399.073 424.71 399.073C425.249 399.073 425.674 399.499 425.674 400.038V450.967C425.703 451.506 425.249 451.932 424.71 451.932Z" fill="#231F20"/>
<path d="M449.75 406.163C440.08 406.163 423.717 404.972 423.717 400.463C423.717 395.954 440.08 394.763 449.75 394.763C459.42 394.763 475.782 395.954 475.782 400.463C475.782 404.944 459.42 406.163 449.75 406.163ZM449.75 396.72C434.522 396.72 425.986 399.159 425.674 400.491C425.986 401.768 434.522 404.235 449.75 404.235C464.978 404.235 473.513 401.796 473.825 400.463C473.513 399.159 464.978 396.72 449.75 396.72Z" fill="#231F20"/>
<path d="M437.386 295.399H337.795C337.256 295.399 336.83 294.974 336.83 294.435C336.83 293.896 337.256 293.471 337.795 293.471H437.386C437.924 293.471 438.378 293.896 438.378 294.435C438.378 294.945 437.924 295.399 437.386 295.399Z" fill="#231F20"/>
<path d="M543.612 295.397H483.977C483.438 295.397 483.013 294.972 483.013 294.433C483.013 293.894 483.466 293.469 483.977 293.469H542.62V56.6848H263.867V232.557C263.867 233.096 263.441 233.521 262.903 233.521C262.364 233.521 261.939 233.096 261.939 232.557V55.7206C261.939 55.1818 262.364 54.7563 262.903 54.7563H543.612C544.151 54.7563 544.577 55.1818 544.577 55.7206V294.433C544.577 294.943 544.151 295.397 543.612 295.397Z" fill="#231F20"/>
<path d="M543.612 82.2933H262.903C262.364 82.2933 261.939 81.8678 261.939 81.329V55.694C261.939 55.1552 262.392 54.73 262.903 54.73H543.612C544.151 54.73 544.577 55.1552 544.577 55.694V81.329C544.577 81.8678 544.151 82.2933 543.612 82.2933ZM263.867 80.3366H542.62V56.6583H263.867V80.3366Z" fill="#231F20"/>
<path d="M525.946 251.587H409.595C409.056 251.587 408.632 251.162 408.632 250.623V106.114C408.632 105.575 409.085 105.15 409.595 105.15H525.946C526.484 105.15 526.938 105.575 526.938 106.114V250.623C526.91 251.133 526.484 251.587 525.946 251.587ZM410.56 249.63H524.954V107.049H410.56V249.63Z" fill="#231F20"/>
<path d="M455.534 207.066C454.995 207.066 454.57 206.64 454.57 206.102V197.736C454.57 197.198 454.995 196.772 455.534 196.772C456.073 196.772 456.527 197.198 456.527 197.736V206.102C456.527 206.612 456.073 207.066 455.534 207.066Z" fill="#231F20"/>
<path d="M454.684 198.729C450.431 198.729 445.865 197.991 442.15 195.609C434.068 190.448 436.167 181.232 437.67 174.483C438.038 172.895 438.378 171.392 438.52 170.173C439.229 164.076 440.449 139.433 440.477 139.178C440.506 138.639 440.959 138.242 441.498 138.242C442.036 138.271 442.462 138.724 442.434 139.263C442.377 140.284 441.186 164.218 440.477 170.371C440.335 171.676 439.967 173.235 439.598 174.88C438.123 181.374 436.309 189.484 443.199 193.908C452.075 199.608 466.991 194.872 467.133 194.815C467.643 194.645 468.21 194.929 468.352 195.439C468.522 195.95 468.239 196.517 467.728 196.658C467.36 196.829 461.433 198.729 454.684 198.729Z" fill="#231F20"/>
<path d="M481.226 161.807C480.545 161.722 480.177 161.212 480.262 160.701C481.34 153.385 477.483 145.02 476.32 142.723C472.719 143.346 456.838 145.643 441.412 140.17C440.902 140 440.647 139.433 440.817 138.923C440.987 138.412 441.554 138.157 442.064 138.327C458.738 144.254 476.491 140.709 476.661 140.681C477.086 140.596 477.511 140.794 477.71 141.163C477.937 141.588 483.551 151.797 482.19 161.013C482.134 161.467 481.708 161.807 481.226 161.807Z" fill="#231F20"/>
<path d="M493.363 157.979C492.569 157.781 492.257 157.242 492.427 156.703C492.484 156.476 499.035 135.265 492.91 128.402C488.486 123.44 486.132 123.979 481.878 124.943C480.234 125.311 478.39 125.737 476.122 125.907C471.443 126.361 467.246 123.95 462.822 121.483C456.896 118.137 450.742 114.677 442.887 117.882C435.089 121.058 432.707 127.92 433.047 132.826C433.416 138.157 436.62 142.212 441.384 143.432C441.894 143.574 442.235 144.112 442.093 144.623C441.951 145.133 441.441 145.474 440.902 145.332C435.259 143.886 431.516 139.15 431.091 132.968C430.58 125.652 434.947 119.016 442.15 116.067C450.884 112.522 457.718 116.379 463.758 119.782C467.927 122.136 471.84 124.319 475.924 123.979C478.079 123.809 479.865 123.383 481.425 123.043C485.905 122.022 489.138 121.313 494.356 127.126C501.19 134.783 494.555 156.391 494.271 157.299C494.158 157.696 493.789 157.979 493.363 157.979Z" fill="#231F20"/>
<path d="M474.165 153.187C473.456 152.903 471.5 151.06 469.316 150.493C468.778 150.351 468.466 149.84 468.607 149.302C468.749 148.791 469.288 148.479 469.798 148.593C472.492 149.273 474.732 151.4 474.846 151.485C475.243 151.854 475.243 152.478 474.874 152.875C474.704 153.073 474.449 153.187 474.165 153.187Z" fill="#231F20"/>
<path d="M445.326 152.563C444.277 151.967 444.248 151.343 444.589 150.946C446.233 149.103 449.381 148.621 449.523 148.593C450.033 148.536 450.543 148.876 450.628 149.415C450.713 149.954 450.345 150.436 449.807 150.521C449.098 150.634 446.999 151.145 446.035 152.251C445.865 152.449 445.609 152.563 445.326 152.563Z" fill="#231F20"/>
<path d="M450.232 175.532C449.239 174.369 448.729 167.904 452.755 156.646C452.925 156.136 453.493 155.88 454.004 156.051C454.514 156.221 454.769 156.788 454.599 157.298C451.735 165.323 451.253 170.853 451.196 173.207L454.684 172.072C455.195 171.902 455.762 172.186 455.932 172.696C456.102 173.207 455.818 173.774 455.308 173.944L450.572 175.504C450.458 175.532 450.345 175.532 450.232 175.532Z" fill="#231F20"/>
<path d="M489.45 176.354C487.408 176.354 485.423 175.759 483.693 174.653C483.24 174.369 483.098 173.746 483.41 173.292C483.693 172.838 484.317 172.725 484.771 173.008C486.16 173.916 487.777 174.398 489.45 174.398C494.214 174.398 498.07 170.513 498.07 165.777C498.07 161.013 494.214 157.157 489.45 157.157C486.104 157.157 483.041 159.113 481.623 162.176C481.397 162.686 480.829 162.885 480.318 162.658C479.836 162.431 479.61 161.835 479.836 161.353C481.566 157.61 485.338 155.228 489.45 155.228C495.292 155.228 500.027 159.964 500.027 165.806C500.027 171.619 495.292 176.354 489.45 176.354Z" fill="#231F20"/>
<path d="M469.203 217.161C454.882 217.133 454.57 206.215 454.57 206.102C454.57 205.563 454.995 205.109 455.534 205.109C456.101 205.137 456.527 205.535 456.527 206.073C456.527 206.442 456.867 215.176 469.174 215.204C482.899 215.204 487.38 207.916 488.061 206.64V175.391C488.061 174.852 488.486 174.426 489.024 174.426C489.563 174.426 489.989 174.852 489.989 175.391V206.867C489.705 207.69 485.196 217.161 469.203 217.161Z" fill="#231F20"/>
<path d="M446.063 161.524C445.439 161.495 444.985 160.957 445.014 160.361L445.184 157.242C445.212 156.618 445.751 156.164 446.346 156.193C446.97 156.221 447.424 156.76 447.396 157.355L447.225 160.475C447.197 161.098 446.687 161.552 446.063 161.524Z" fill="#231F20"/>
<path d="M464.722 162.289C464.126 162.261 463.644 161.722 463.673 161.127L463.843 158.007C463.871 157.412 464.41 156.93 465.006 156.958C465.601 156.986 466.083 157.525 466.055 158.121L465.885 161.24C465.856 161.864 465.346 162.318 464.722 162.289Z" fill="#231F20"/>
<path d="M456.215 184.21C455.704 184.068 449.665 180.24 449.665 180.24C449.211 179.956 449.069 179.332 449.353 178.878C449.636 178.425 450.26 178.283 450.714 178.567L455.96 181.884L460.894 175.305C461.234 174.88 461.83 174.795 462.255 175.107C462.681 175.447 462.766 176.043 462.454 176.468L456.98 183.784C456.81 184.068 456.498 184.21 456.215 184.21Z" fill="#231F20"/>
<path d="M409.595 237.493C408.745 237.238 408.49 236.671 408.688 236.189C418.217 210.695 453.918 206.101 455.421 205.903C455.932 205.846 456.442 206.215 456.499 206.754C456.555 207.292 456.187 207.775 455.648 207.86C455.279 207.888 419.634 212.482 410.503 236.869C410.361 237.238 409.992 237.493 409.595 237.493Z" fill="#231F20"/>
<path d="M525.946 223.797C511.314 210.667 489.11 207.888 488.883 207.86C488.344 207.803 487.976 207.293 488.032 206.782C488.089 206.243 488.599 205.875 489.11 205.931C490.046 206.045 512.164 208.824 526.598 222.124C526.995 222.492 527.024 223.116 526.655 223.513C526.456 223.683 526.201 223.797 525.946 223.797Z" fill="#231F20"/>
<path d="M378.431 124.29H318.625C317.236 124.29 316.129 123.156 316.129 121.795V103.022C316.129 101.633 317.264 100.527 318.625 100.527H378.431C379.82 100.527 380.926 101.661 380.926 103.022V121.795C380.955 123.184 379.82 124.29 378.431 124.29ZM318.654 102.484C318.115 103.051 318.114 121.795 318.114 121.795C318.653 122.362 378.459 122.362 378.459 122.362C378.998 121.795 378.998 103.051 378.998 103.051C378.43 102.484 318.654 102.484 318.654 102.484Z" fill="#231F20"/>
<path d="M358.155 113.429H324.07C323.644 113.429 323.276 113.089 323.276 112.635C323.276 112.21 323.616 111.841 324.07 111.841H358.155C358.581 111.841 358.949 112.182 358.949 112.635C358.921 113.061 358.581 113.429 358.155 113.429Z" fill="#231F20"/>
<path d="M364.309 107.673H324.07C323.644 107.673 323.276 107.332 323.276 106.879C323.276 106.453 323.616 106.085 324.07 106.085H364.309C364.734 106.085 365.103 106.425 365.103 106.879C365.074 107.332 364.734 107.673 364.309 107.673Z" fill="#231F20"/>
<path d="M351.491 119.526H324.07C323.644 119.526 323.276 119.186 323.276 118.732C323.276 118.307 323.616 117.938 324.07 117.938H351.491C351.916 117.938 352.285 118.278 352.285 118.732C352.285 119.157 351.916 119.526 351.491 119.526Z" fill="#231F20"/>
<path d="M378.431 198.218H318.625C317.236 198.218 316.129 197.112 316.129 195.723V176.95C316.129 175.561 317.264 174.455 318.625 174.455H378.431C379.82 174.455 380.926 175.589 380.926 176.95V195.723C380.955 197.084 379.82 198.218 378.431 198.218ZM318.654 176.383C318.115 176.922 318.114 195.694 318.114 195.694C318.653 196.233 378.459 196.233 378.459 196.233C378.998 195.694 378.998 176.922 378.998 176.922C378.43 176.383 318.654 176.383 318.654 176.383Z" fill="#231F20"/>
<path d="M358.155 186.932H324.07C323.644 186.932 323.276 186.592 323.276 186.138C323.276 185.713 323.616 185.344 324.07 185.344H358.155C358.581 185.344 358.949 185.685 358.949 186.138C358.921 186.592 358.581 186.932 358.155 186.932Z" fill="#231F20"/>
<path d="M364.309 181.176H324.07C323.644 181.176 323.276 180.836 323.276 180.382C323.276 179.956 323.616 179.588 324.07 179.588H364.309C364.734 179.588 365.103 179.928 365.103 180.382C365.074 180.836 364.734 181.176 364.309 181.176Z" fill="#231F20"/>
<path d="M351.491 193.029H324.07C323.644 193.029 323.276 192.689 323.276 192.235C323.276 191.781 323.616 191.441 324.07 191.441H351.491C351.916 191.441 352.285 191.781 352.285 192.235C352.285 192.689 351.916 193.029 351.491 193.029Z" fill="#231F20"/>
<path d="M341.367 161.155H281.562C280.172 161.155 279.066 160.021 279.066 158.659V139.887C279.066 138.497 280.201 137.391 281.562 137.391H341.367C342.757 137.391 343.863 138.526 343.863 139.887V158.659C343.863 160.021 342.728 161.155 341.367 161.155ZM281.562 139.348C281.023 139.887 281.023 158.659 281.023 158.659C281.562 159.198 341.367 159.198 341.367 159.198C341.906 158.659 341.907 139.887 341.907 139.887C341.368 139.348 281.562 139.348 281.562 139.348Z" fill="#231F20"/>
<path d="M320.978 149.869H286.893C286.467 149.869 286.099 149.529 286.099 149.075C286.099 148.65 286.439 148.281 286.893 148.281H320.978C321.404 148.281 321.773 148.621 321.773 149.075C321.773 149.529 321.404 149.869 320.978 149.869Z" fill="#231F20"/>
<path d="M327.133 144.141H286.893C286.467 144.141 286.099 143.8 286.099 143.347C286.099 142.921 286.439 142.553 286.893 142.553H327.133C327.558 142.553 327.926 142.893 327.926 143.347C327.926 143.772 327.558 144.141 327.133 144.141Z" fill="#231F20"/>
<path d="M314.343 155.966H286.921C286.496 155.966 286.127 155.625 286.127 155.172C286.127 154.746 286.468 154.378 286.921 154.378H314.343C314.769 154.378 315.137 154.718 315.137 155.172C315.108 155.625 314.769 155.966 314.343 155.966Z" fill="#231F20"/>
<path d="M378.431 271.919H318.625C317.236 271.919 316.129 270.784 316.129 269.423V250.651C316.129 249.261 317.264 248.155 318.625 248.155H378.431C379.82 248.155 380.926 249.29 380.926 250.651V269.423C380.955 270.784 379.82 271.919 378.431 271.919ZM318.654 250.112C318.115 250.679 318.114 269.423 318.114 269.423C318.653 269.962 378.459 269.962 378.459 269.962C378.998 269.423 378.998 250.651 378.998 250.651C378.43 250.112 318.654 250.112 318.654 250.112Z" fill="#231F20"/>
<path d="M358.155 260.633H324.07C323.644 260.633 323.276 260.293 323.276 259.839C323.276 259.414 323.616 259.045 324.07 259.045H358.155C358.581 259.045 358.949 259.386 358.949 259.839C358.921 260.293 358.581 260.633 358.155 260.633Z" fill="#231F20"/>
<path d="M364.309 254.905H324.07C323.644 254.905 323.276 254.565 323.276 254.111C323.276 253.686 323.616 253.317 324.07 253.317H364.309C364.734 253.317 365.103 253.657 365.103 254.111C365.074 254.536 364.734 254.905 364.309 254.905Z" fill="#231F20"/>
<path d="M351.491 266.73H324.07C323.644 266.73 323.276 266.389 323.276 265.936C323.276 265.51 323.616 265.142 324.07 265.142H351.491C351.916 265.142 352.285 265.482 352.285 265.936C352.285 266.389 351.916 266.73 351.491 266.73Z" fill="#231F20"/>
<path d="M341.367 234.856H281.562C280.172 234.856 279.066 233.722 279.066 232.36V213.588C279.066 212.198 280.201 211.092 281.562 211.092H341.367C342.757 211.092 343.863 212.227 343.863 213.588V232.36C343.863 233.75 342.728 234.856 341.367 234.856ZM281.562 213.049C281.023 213.588 281.023 232.36 281.023 232.36C281.562 232.899 341.367 232.899 341.367 232.899C341.906 232.36 341.907 213.588 341.907 213.588C341.368 213.049 281.562 213.049 281.562 213.049Z" fill="#231F20"/>
<path d="M320.978 223.598H286.893C286.467 223.598 286.099 223.258 286.099 222.804C286.099 222.35 286.439 222.01 286.893 222.01H320.978C321.404 222.01 321.773 222.35 321.773 222.804C321.773 223.258 321.404 223.598 320.978 223.598Z" fill="#231F20"/>
<path d="M327.133 217.841H286.893C286.467 217.841 286.099 217.501 286.099 217.047C286.099 216.622 286.439 216.253 286.893 216.253H327.133C327.558 216.253 327.926 216.594 327.926 217.047C327.926 217.501 327.558 217.841 327.133 217.841Z" fill="#231F20"/>
<path d="M314.343 229.695H286.921C286.496 229.695 286.127 229.355 286.127 228.901C286.127 228.476 286.468 228.107 286.921 228.107H314.343C314.769 228.107 315.137 228.447 315.137 228.901C315.108 229.326 314.769 229.695 314.343 229.695Z" fill="#231F20"/>
<path d="M491.634 171.307C491.18 171.194 483.523 167.309 483.523 167.309C483.325 165.692 490.981 158.886 490.981 158.886C491.378 158.518 492.002 158.574 492.371 158.971C492.739 159.368 492.683 159.992 492.286 160.361L485.679 166.231L492.059 169.464C492.541 169.691 492.739 170.286 492.484 170.768C492.314 171.109 491.974 171.307 491.634 171.307Z" fill="#231F20"/>
<g opacity="0.2">
<g opacity="0.2">
<path opacity="0.2" d="M189.06 440.73C188.521 440.73 188.096 440.305 188.068 439.795C188.068 439.284 188.039 439.057 189.032 438.887C189.117 438.802 189.57 438.774 190.535 438.717C191.555 438.632 192.973 438.575 194.987 438.462C196.575 438.433 197 438.887 197 439.398C197 439.936 196.575 440.362 196.036 440.39C189.258 440.73 189.117 440.73 189.06 440.73Z" fill="#231F20"/>
</g>
</g>
<path d="M177.745 210.582C174.824 209.277 171.223 206.016 171.053 205.875C171.28 204.287 176.327 201.734 176.327 201.734C176.384 199.664 176.299 192.008 173.378 182.054C173.236 181.544 173.521 181.005 174.031 180.835C174.541 180.693 175.08 180.977 175.25 181.487C178.795 193.511 178.285 202.046 178.256 202.415C177.717 203.237 173.435 205.364 173.435 205.364C174.654 206.413 176.668 208.001 178.143 208.71C178.625 208.937 178.823 209.533 178.596 210.015C178.454 210.383 178.114 210.582 177.745 210.582Z" fill="#231F20"/>
<path d="M166.913 195.722C166.119 195.949 165.24 195.496 165.013 194.702L163.794 190.561C163.567 189.767 164.02 188.888 164.843 188.662C165.665 188.435 166.516 188.888 166.743 189.711L167.962 193.851C168.189 194.645 167.736 195.496 166.913 195.722Z" fill="#231F20"/>
<path d="M191.442 189.257C190.62 189.484 189.769 189.03 189.543 188.236L188.323 184.096C188.096 183.302 188.55 182.423 189.344 182.196C190.166 181.969 191.017 182.423 191.244 183.245L192.463 187.385C192.719 188.151 192.236 189.002 191.442 189.257Z" fill="#231F20"/>
<path d="M151.912 181.402C151.487 181.402 151.09 181.119 150.976 180.665C150.834 180.154 151.146 179.616 151.685 179.474L200.431 166.656C199.864 164.076 198.503 157.412 199.411 154.69C201.226 154.576 206.868 163.707 212.398 174.795C212.625 175.277 212.455 175.873 211.945 176.099C211.463 176.326 210.867 176.128 210.64 175.674C206.897 168.188 203.125 161.58 201.055 158.121C201.225 161.155 202.076 165.324 202.53 167.138C202.672 167.649 202.36 168.188 201.821 168.301L152.167 181.374C152.082 181.374 151.997 181.402 151.912 181.402Z" fill="#231F20"/>
<path d="M215.942 226.632C215.007 226.264 214.837 225.668 215.092 225.186C226.52 204.173 219.884 196.063 219.828 195.978C219.487 195.581 219.516 194.957 219.913 194.588C220.31 194.248 220.934 194.276 221.274 194.673C221.586 195.042 228.958 203.748 216.793 226.122C216.623 226.434 216.311 226.632 215.942 226.632Z" fill="#231F20"/>
<path d="M215.943 226.632C214.837 225.555 215.064 224.959 215.546 224.761C228.335 219.259 245.86 209.703 244.783 205.648C235.311 169.946 236.899 155.228 237.211 153.158C234.715 144.708 229.129 138.838 220.622 135.69C200.347 128.204 168.132 138.129 159.427 143.857C158.746 144.254 144.17 152.96 152.848 180.126C153.018 180.636 152.734 181.175 152.224 181.345C151.713 181.515 151.175 181.232 151.005 180.722C141.817 151.967 158.264 142.297 158.435 142.184C167.31 136.342 200.46 126.134 221.331 133.847C230.519 137.25 236.531 143.63 239.196 152.789C239.196 153.385 236.842 167.762 246.739 205.109C248.639 212.283 221.785 224.222 216.369 226.519C216.227 226.604 216.085 226.632 215.943 226.632Z" fill="#231F20"/>
<path d="M163.255 232.672C162.319 232.304 162.149 231.708 162.404 231.226L163.028 230.092C165.013 226.462 166.203 224.25 167.082 221.244C167.224 220.734 167.764 220.422 168.302 220.564C168.813 220.706 169.125 221.244 168.983 221.783C168.047 225.016 166.743 227.426 164.786 231.028L164.162 232.162C163.935 232.502 163.595 232.672 163.255 232.672Z" fill="#231F20"/>
<path d="M163.255 232.673C162.829 232.673 162.432 232.389 162.319 231.964C162.177 231.453 162.461 230.914 162.971 230.744C163.028 230.744 167.593 229.355 174.115 225.98C174.597 225.725 175.193 225.923 175.42 226.405C175.675 226.888 175.477 227.483 174.994 227.71C168.302 231.17 163.708 232.559 163.51 232.616C163.424 232.672 163.34 232.673 163.255 232.673Z" fill="#231F20"/>
<path d="M198.021 440.56H47.4149C33.293 440.56 27.9617 429.161 24.6155 417.988L17.9235 394.196C17.7818 393.685 18.0653 393.147 18.6041 392.977C19.1145 392.806 19.6531 393.147 19.8233 393.657L26.5159 417.421C31.0247 432.45 37.0929 438.575 47.4433 438.575H198.05C209.534 438.575 218.864 429.274 218.949 417.818L196.603 338.53C192.038 323.898 185.572 317.376 175.675 317.376H25.0697C13.5849 317.376 4.255 326.677 4.16993 338.133L13.6415 371.794C13.7833 372.304 13.4998 372.843 12.961 373.013C12.4506 373.183 11.9113 372.871 11.7411 372.332L2.21344 338.53C2.18508 325.656 12.4222 315.419 25.0413 315.419H175.647C189.769 315.419 195.412 328.293 198.446 337.992L220.821 417.421C220.849 430.323 210.612 440.56 198.021 440.56Z" fill="#231F20"/>
<path d="M191.187 440.56C190.648 440.56 190.223 440.135 190.223 439.596C190.223 439.057 190.676 438.632 191.187 438.632C202.671 438.632 212.001 429.671 212.086 418.612L189.769 342.047C185.203 327.925 178.738 321.629 168.841 321.629H12.1952C11.6564 321.629 11.2308 321.204 11.2308 320.665C11.2308 320.126 11.6848 319.701 12.1952 319.701H168.841C182.963 319.701 188.607 332.15 191.641 341.508L214.015 418.243C214.043 430.664 203.777 440.56 191.187 440.56Z" fill="#231F20"/>
<path d="M291.317 440.56H199.326C198.787 440.56 198.361 440.135 198.361 439.596C198.361 439.057 198.787 438.632 199.326 438.632H291.317C293.727 438.632 295.656 436.675 295.656 434.293C295.656 431.883 293.699 429.954 291.317 429.954H216.765C216.226 429.954 215.801 429.529 215.801 428.99C215.801 428.452 216.255 428.026 216.765 428.026H291.317C294.805 428.026 297.612 430.862 297.612 434.322C297.612 437.724 294.776 440.56 291.317 440.56Z" fill="#231F20"/>
<path d="M222.862 429.898C222.097 429.728 221.784 429.217 221.926 428.679C222.096 427.97 226.208 411.494 234.432 409.339C242.428 407.24 258.621 406.56 266.504 407.978C268.461 408.318 270.758 409.452 272.97 411.154C276.911 414.16 277.79 419.803 274.926 423.744C273.707 425.417 272.941 427.204 272.657 429.076C272.572 429.614 272.09 429.926 271.552 429.898C271.013 429.813 270.644 429.331 270.729 428.792C271.07 426.608 271.948 424.51 273.338 422.61C275.578 419.548 274.898 415.124 271.779 412.742C269.85 411.267 267.78 410.246 266.164 409.934C258.621 408.573 242.542 409.282 234.914 411.267C227.825 413.11 223.854 429.019 223.826 429.189C223.684 429.614 223.288 429.898 222.862 429.898Z" fill="#231F20"/>
<path d="M194.562 199.381C190.847 199.381 187.387 197.935 184.749 195.326C182.141 192.717 180.695 189.229 180.695 185.514C180.695 177.886 186.905 171.676 194.533 171.676C198.248 171.676 201.708 173.122 204.345 175.731C206.954 178.34 208.4 181.828 208.4 185.514C208.4 193.199 202.19 199.381 194.562 199.381ZM194.59 173.661C188.011 173.661 182.679 178.992 182.679 185.542C182.679 188.718 183.899 191.696 186.167 193.965C188.408 196.205 191.386 197.453 194.59 197.453C201.141 197.453 206.5 192.121 206.5 185.571C206.5 182.395 205.281 179.417 203.012 177.149C200.744 174.909 197.766 173.661 194.59 173.661Z" fill="#231F20"/>
<path d="M162.858 206.357C155.201 206.357 148.991 200.118 149.02 192.49C149.02 184.862 155.23 178.651 162.886 178.651C170.543 178.651 176.725 184.862 176.725 192.518C176.697 200.146 170.486 206.357 162.858 206.357ZM162.886 180.608C156.307 180.608 150.976 185.939 150.976 192.49C150.976 199.04 156.307 204.4 162.858 204.4C169.408 204.4 174.768 199.069 174.768 192.518C174.768 185.939 169.437 180.608 162.886 180.608Z" fill="#231F20"/>
<path d="M175.675 190.618C174.938 190.476 174.598 189.966 174.712 189.427C174.853 188.775 175.449 187.499 176.753 186.818C178.143 186.081 179.929 186.195 182.056 187.102C182.566 187.3 182.793 187.896 182.566 188.378C182.367 188.888 181.772 189.115 181.29 188.888C179.759 188.236 178.482 188.094 177.66 188.52C176.838 188.945 176.611 189.767 176.611 189.824C176.526 190.306 176.129 190.618 175.675 190.618Z" fill="#231F20"/>
<path d="M296.648 435.825C296.138 435.825 295.712 435.428 295.684 434.917C295.627 434.379 296.053 433.897 296.592 433.868C311.167 432.706 323.049 427.147 332.917 416.854C353.845 394.99 354.894 358.409 343.863 335.638C292.905 230.688 227.881 236.331 227.229 236.444C226.747 236.501 226.35 236.217 226.208 235.82L221.728 223.541C221.558 223.031 221.813 222.464 222.295 222.294C222.805 222.095 223.373 222.379 223.543 222.861L227.768 234.459C235.311 234.175 296.989 234.714 345.593 334.787C356.936 358.154 355.83 395.728 334.306 418.215C324.24 428.707 311.592 434.634 296.733 435.825C296.676 435.825 296.648 435.825 296.648 435.825Z" fill="#231F20"/>
<path d="M143.802 317.404C143.206 317.376 142.781 316.894 142.838 316.384C143.859 299.936 150.806 281.277 150.863 281.107C151.033 280.597 151.6 280.341 152.11 280.54C152.621 280.738 152.877 281.305 152.678 281.788C152.621 281.958 145.759 300.362 144.766 316.497C144.738 317.008 144.312 317.404 143.802 317.404Z" fill="#231F20"/>
<path d="M229.044 415.719C228.562 415.719 228.165 415.379 228.08 414.897C225.272 397.797 240.16 391.19 257.373 383.505C267.213 379.138 277.365 374.601 285.532 367.653C291.544 362.521 294.777 356.14 295.117 348.711C296.053 327.584 273.565 304.36 273.338 304.133C272.969 303.736 272.969 303.112 273.366 302.743C273.763 302.375 274.359 302.375 274.756 302.772C275.72 303.736 298.066 326.819 297.073 348.796C296.705 356.792 293.245 363.626 286.808 369.156C278.442 376.302 268.149 380.868 258.196 385.292C241.72 392.636 227.485 398.96 230.037 414.585C230.122 415.124 229.753 415.606 229.243 415.691C229.129 415.719 229.073 415.719 229.044 415.719Z" fill="#231F20"/>
<path d="M267.979 380.839C267.241 380.698 266.901 380.187 267.014 379.648L281.817 313.888C281.93 313.377 282.441 313.008 282.98 313.15C283.519 313.264 283.83 313.803 283.717 314.313L268.915 380.074C268.83 380.527 268.432 380.839 267.979 380.839Z" fill="#231F20"/>
<path d="M264.859 429.898C264.321 429.898 263.896 429.473 263.896 428.934V422.383C262.818 423.943 261.967 426.495 261.627 428.168C261.514 428.707 261.003 429.047 260.465 428.934C259.926 428.821 259.585 428.31 259.699 427.771C259.841 427.034 261.23 420.654 264.491 419.321C265.852 420.228 265.852 428.934 265.852 428.934C265.824 429.473 265.398 429.898 264.859 429.898Z" fill="#231F20"/>
<path d="M101.975 390.623C96.9271 390.623 92.2481 386.71 90.6033 381.095C88.6183 374.346 91.6814 367.483 97.4379 365.782C98.317 365.527 99.1959 365.385 100.103 365.385C105.151 365.385 109.83 369.298 111.475 374.913C113.46 381.662 110.397 388.525 104.64 390.226C103.789 390.51 102.882 390.623 101.975 390.623ZM100.103 367.342C99.3944 367.342 98.6571 367.455 97.9765 367.654C93.2408 369.043 90.7739 374.828 92.447 380.556C93.8648 385.349 97.7777 388.695 101.946 388.695C102.655 388.695 103.393 388.581 104.073 388.383C108.809 386.993 111.276 381.208 109.603 375.48C108.185 370.688 104.3 367.342 100.103 367.342Z" fill="#231F20"/>
<path d="M193.597 218.579C193.342 218.55 183.331 215.913 183.331 215.913C182.821 215.771 182.509 215.233 182.622 214.722C182.764 214.212 183.303 213.871 183.814 214.013L192.945 216.424L196.546 206.13C196.717 205.619 197.283 205.364 197.794 205.534C198.304 205.705 198.559 206.272 198.389 206.782L194.476 217.927C194.363 218.324 193.994 218.579 193.597 218.579Z" fill="#231F20"/>
<path d="M185.147 230.12C168.218 230.12 163.454 215.601 161.695 210.242C161.525 209.76 161.412 209.334 161.27 208.994C159.597 204.457 153.585 181.175 153.33 180.211C153.188 179.701 153.5 179.162 154.039 179.02C154.55 178.878 155.088 179.19 155.23 179.729C155.485 180.722 161.469 203.861 163.113 208.342C163.255 208.682 163.397 209.136 163.567 209.646C165.722 216.197 171.422 233.608 195.639 226.519C196.178 226.349 196.688 226.66 196.858 227.199C197 227.71 196.717 228.249 196.206 228.419C192.038 229.581 188.38 230.12 185.147 230.12Z" fill="#231F20"/>
<path d="M95.2543 316.497C94.2901 316.071 94.1482 315.476 94.4034 315.022C135.295 245.688 183.417 240.584 191.669 240.243L189.401 229.411C189.287 228.901 189.628 228.362 190.166 228.248C190.705 228.135 191.215 228.475 191.329 229.014L193.825 240.981C192.237 242.115 140.115 241.349 96.1044 316.014C95.9343 316.326 95.5946 316.497 95.2543 316.497Z" fill="#231F20"/>
<path d="M219.516 196.006C218.977 196.006 218.552 195.581 218.552 195.07C218.524 194.532 218.948 194.078 219.487 194.049C223.315 193.908 226.095 192.575 227.74 190.108C229.895 186.875 229.64 182.281 228.477 179.19C227.57 176.808 224.053 169.208 216.793 171.817C212.483 173.349 212.483 178.765 212.483 178.821C212.483 179.36 212.058 179.814 211.519 179.814C210.981 179.814 210.527 179.389 210.527 178.85C210.527 178.566 210.526 171.987 216.141 169.974C223.231 167.45 228.108 172.725 230.292 178.51C231.539 181.827 232.049 187.13 229.356 191.214C227.966 193.312 225.13 195.836 219.544 196.034C219.544 196.006 219.544 196.006 219.516 196.006Z" fill="#231F20"/>
<path d="M224.422 188.322C224.308 188.322 215.83 187.357 215.83 187.357C215.036 186.025 219.375 174.767 219.375 174.767C219.573 174.256 220.14 174.001 220.622 174.199C221.133 174.398 221.388 174.965 221.189 175.476L217.304 185.571L224.507 186.393C225.045 186.45 225.414 186.932 225.358 187.471C225.329 187.953 224.932 188.322 224.422 188.322Z" fill="#231F20"/>
<path d="M208.853 259.498C194.051 259.498 191.924 241.491 191.895 241.321C191.839 240.783 192.236 240.3 192.775 240.244C193.313 240.159 193.796 240.584 193.853 241.123C193.938 241.803 195.809 257.57 208.853 257.57C222.521 257.343 226.066 235.593 226.095 235.366C226.18 234.827 226.69 234.516 227.201 234.544C227.74 234.629 228.108 235.139 228.023 235.65C227.881 236.614 224.195 259.243 209.165 259.498C209.08 259.498 208.966 259.498 208.853 259.498Z" fill="#231F20"/>
<path d="M546.874 440.56H474.789C474.25 440.56 473.825 440.135 473.825 439.596C473.825 439.057 474.25 438.632 474.789 438.632H546.874C547.413 438.632 547.837 439.057 547.837 439.596C547.866 440.106 547.413 440.56 546.874 440.56Z" fill="#231F20"/>
<path d="M406.873 440.56H291.544C291.005 440.56 290.579 440.135 290.579 439.596C290.579 439.057 291.005 438.632 291.544 438.632H406.873C407.412 438.632 407.837 439.057 407.837 439.596C407.866 440.106 407.412 440.56 406.873 440.56Z" fill="#231F20"/>
</svg>
